<svg xmlns="http://www.w3.org/2000/svg" xmlns:xlink="http://www.w3.org/1999/xlink" width="186" zoomAndPan="magnify" viewBox="0 0 139.5 36.750001" height="49" preserveAspectRatio="xMidYMid meet" version="1.0"><defs><g/><clipPath id="a1a53ab5e3"><path d="M 0.222656 17 L 25 17 L 25 33 L 0.222656 33 Z M 0.222656 17 " clip-rule="nonzero"/></clipPath><clipPath id="e1dd519a34"><path d="M 0.222656 17 L 8 17 L 8 32 L 0.222656 32 Z M 0.222656 17 " clip-rule="nonzero"/></clipPath><clipPath id="9145d2849f"><path d="M 1 1.402344 L 28.570312 1.402344 L 28.570312 24 L 1 24 Z M 1 1.402344 " clip-rule="nonzero"/></clipPath><clipPath id="acaaa852ec"><path d="M 1 1.402344 L 28.570312 1.402344 L 28.570312 25 L 1 25 Z M 1 1.402344 " clip-rule="nonzero"/></clipPath></defs><g clip-path="url(#a1a53ab5e3)"><path fill="#a3c14a" d="M 21.558594 18.535156 C 21.136719 18.601562 20.710938 18.636719 20.277344 18.617188 C 18.378906 18.53125 16.5 18.292969 14.597656 18.261719 C 12.449219 18.226562 10.304688 18.058594 8.15625 17.972656 C 7.214844 17.9375 6.269531 17.910156 5.328125 17.867188 C 4.636719 17.835938 3.996094 17.867188 3.351562 17.949219 C 3.382812 18.003906 3.410156 18.054688 3.441406 18.109375 C 2.34375 19.808594 1.476562 21.636719 0.863281 23.488281 C 0.503906 24.953125 0.703125 26.519531 1.332031 27.902344 C 1.789062 28.910156 2.503906 29.851562 3.523438 30.394531 C 4.074219 30.683594 4.6875 30.847656 5.292969 31.007812 C 5.65625 31.105469 6.023438 31.203125 6.402344 31.21875 C 6.78125 31.230469 7.175781 31.15625 7.542969 30.96875 C 7.804688 31.46875 8.226562 31.929688 8.796875 32.109375 C 9.363281 32.289062 10.082031 32.117188 10.371094 31.628906 C 10.472656 31.457031 10.53125 31.246094 10.707031 31.136719 C 10.828125 31.058594 10.988281 31.050781 11.136719 31.046875 C 11.921875 31.015625 12.703125 30.984375 13.484375 30.953125 C 13.566406 30.953125 13.648438 30.949219 13.722656 30.972656 C 13.863281 31.015625 13.953125 31.136719 14.039062 31.253906 C 14.21875 31.507812 14.414062 31.761719 14.671875 31.953125 C 14.929688 32.148438 15.261719 32.273438 15.589844 32.234375 C 15.941406 32.191406 16.238281 31.964844 16.488281 31.726562 C 16.796875 31.425781 17.070312 31.09375 17.320312 30.730469 C 17.3125 30.914062 17.5 31.054688 17.6875 31.128906 C 18.347656 31.386719 19.109375 31.1875 19.789062 30.96875 C 20.339844 30.792969 20.890625 30.605469 21.386719 30.316406 C 22.40625 29.714844 23.109375 28.710938 23.472656 27.644531 C 24.15625 26.09375 24.234375 24.335938 23.804688 22.710938 C 23.402344 21.191406 22.574219 19.785156 21.558594 18.535156 Z M 21.558594 18.535156 " fill-opacity="1" fill-rule="nonzero"/></g><path fill="#d6f27c" d="M 13.570312 29.328125 C 13.511719 28.386719 13.449219 27.425781 13.070312 26.5625 C 12.925781 26.234375 12.679688 25.890625 12.324219 25.871094 C 11.914062 25.851562 11.625 26.265625 11.492188 26.65625 C 11.003906 28.074219 11.476562 29.691406 10.964844 31.101562 C 11.894531 30.949219 12.839844 30.863281 13.78125 30.84375 C 13.585938 30.296875 13.597656 29.703125 13.570312 29.328125 Z M 13.570312 29.328125 " fill-opacity="1" fill-rule="nonzero"/><g clip-path="url(#e1dd519a34)"><path fill="#3d471d" d="M 6.53125 31.367188 C 4.664062 31.367188 2.6875 30.480469 1.703125 29.109375 C 0.609375 27.582031 0.238281 25.492188 0.679688 23.367188 C 1.117188 21.277344 2.238281 19.410156 3.164062 18.015625 C 3.238281 17.902344 3.390625 17.871094 3.503906 17.949219 C 3.617188 18.023438 3.648438 18.175781 3.570312 18.289062 C 2.671875 19.644531 1.582031 21.460938 1.160156 23.46875 C 0.742188 25.457031 1.085938 27.40625 2.101562 28.820312 C 3.171875 30.316406 5.546875 31.175781 7.507812 30.78125 C 7.640625 30.753906 7.769531 30.839844 7.796875 30.972656 C 7.824219 31.105469 7.738281 31.234375 7.605469 31.261719 C 7.257812 31.332031 6.894531 31.367188 6.53125 31.367188 Z M 6.53125 31.367188 " fill-opacity="1" fill-rule="nonzero"/></g><path fill="#3d471d" d="M 11 31.296875 C 10.871094 31.296875 10.761719 31.191406 10.757812 31.054688 C 10.753906 30.921875 10.863281 30.808594 10.996094 30.804688 L 13.691406 30.746094 C 13.820312 30.742188 13.9375 30.851562 13.941406 30.984375 C 13.941406 31.121094 13.835938 31.234375 13.699219 31.238281 L 11.007812 31.296875 C 11.003906 31.296875 11.003906 31.296875 11 31.296875 Z M 11 31.296875 " fill-opacity="1" fill-rule="nonzero"/><path fill="#3d471d" d="M 18.191406 31.367188 C 17.824219 31.367188 17.464844 31.332031 17.117188 31.261719 C 16.984375 31.234375 16.898438 31.105469 16.925781 30.972656 C 16.953125 30.839844 17.082031 30.753906 17.214844 30.78125 C 19.171875 31.175781 21.546875 30.316406 22.621094 28.820312 C 23.632812 27.40625 23.976562 25.457031 23.5625 23.46875 C 23.535156 23.34375 23.507812 23.222656 23.476562 23.105469 C 23.441406 22.972656 23.519531 22.839844 23.652344 22.804688 C 23.78125 22.769531 23.914062 22.847656 23.949219 22.980469 C 23.980469 23.105469 24.011719 23.234375 24.039062 23.367188 C 24.484375 25.492188 24.113281 27.582031 23.019531 29.109375 C 22.035156 30.480469 20.058594 31.367188 18.191406 31.367188 Z M 18.191406 31.367188 " fill-opacity="1" fill-rule="nonzero"/><g clip-path="url(#9145d2849f)"><path fill="#a3c14a" d="M 5.503906 19.96875 C 3.832031 18.882812 2.726562 17.667969 2.089844 16.523438 C 1.191406 14.902344 1.738281 13.074219 1.921875 12.558594 C 2.617188 10.640625 3.886719 8.90625 5.625 7.574219 C 5.78125 7.453125 5.824219 7.242188 5.730469 7.070312 C 5.117188 5.925781 5.1875 4.445312 5.929688 3.390625 C 6.742188 2.238281 8.300781 1.667969 9.675781 2.015625 C 11.015625 2.359375 12.09375 3.550781 12.148438 5.058594 C 12.148438 5.121094 12.203125 5.171875 12.265625 5.164062 C 15.195312 4.871094 18.488281 5.234375 21.953125 7.960938 C 22.003906 8.003906 22.074219 7.992188 22.113281 7.9375 C 22.960938 6.695312 24.511719 6.273438 25.824219 6.707031 C 27.167969 7.15625 28.179688 8.476562 28.246094 9.882812 C 28.308594 11.175781 27.574219 12.464844 26.449219 13.097656 C 26.277344 13.191406 26.199219 13.394531 26.265625 13.578125 C 26.964844 15.480469 27.089844 17.449219 26.8125 19.316406 C 26.617188 20.644531 25.945312 21.535156 25.140625 22.152344 C 24.484375 22.65625 23.71875 23.042969 22.925781 23.308594 C 22.667969 23.394531 20.988281 23.894531 18.808594 23.941406 C 14.152344 23.46875 9.386719 22.484375 5.503906 19.96875 Z M 5.503906 19.96875 " fill-opacity="1" fill-rule="nonzero"/></g><path fill="#3d471d" d="M 17.1875 8.457031 C 17.011719 8.457031 16.835938 8.4375 16.667969 8.390625 C 16.039062 8.222656 15.5 7.742188 15.265625 7.132812 C 15.214844 7.007812 15.277344 6.863281 15.402344 6.8125 C 15.527344 6.765625 15.671875 6.828125 15.71875 6.953125 C 15.902344 7.417969 16.3125 7.785156 16.792969 7.914062 C 17.273438 8.042969 17.8125 7.929688 18.199219 7.617188 C 18.304688 7.53125 18.460938 7.546875 18.542969 7.652344 C 18.628906 7.757812 18.613281 7.914062 18.507812 8 C 18.136719 8.296875 17.664062 8.457031 17.1875 8.457031 Z M 17.1875 8.457031 " fill-opacity="1" fill-rule="nonzero"/><g clip-path="url(#acaaa852ec)"><path fill="#3d471d" d="M 19.039062 24.171875 C 18.90625 24.171875 18.796875 24.066406 18.792969 23.929688 C 18.789062 23.796875 18.898438 23.683594 19.035156 23.679688 C 21.09375 23.648438 22.828125 23.082031 22.847656 23.078125 C 23.648438 22.808594 24.390625 22.417969 24.992188 21.957031 C 25.878906 21.277344 26.410156 20.375 26.570312 19.28125 C 26.859375 17.316406 26.679688 15.425781 26.035156 13.664062 C 25.929688 13.367188 26.050781 13.039062 26.328125 12.882812 C 27.386719 12.289062 28.058594 11.085938 28 9.894531 C 27.9375 8.597656 26.988281 7.355469 25.746094 6.941406 C 24.472656 6.519531 23.058594 6.984375 22.3125 8.078125 C 22.257812 8.160156 22.171875 8.214844 22.074219 8.226562 C 21.976562 8.242188 21.878906 8.21875 21.800781 8.15625 C 18.066406 5.214844 14.585938 5.179688 12.292969 5.410156 C 12.195312 5.417969 12.097656 5.386719 12.023438 5.324219 C 11.949219 5.257812 11.90625 5.164062 11.902344 5.066406 C 11.855469 3.742188 10.917969 2.585938 9.613281 2.253906 C 8.34375 1.933594 6.878906 2.46875 6.132812 3.53125 C 5.445312 4.503906 5.371094 5.878906 5.945312 6.953125 C 6.097656 7.234375 6.023438 7.578125 5.773438 7.769531 C 4.09375 9.054688 2.84375 10.742188 2.152344 12.644531 C 1.972656 13.136719 1.457031 14.871094 2.304688 16.402344 C 2.980469 17.625 4.136719 18.785156 5.636719 19.761719 C 5.753906 19.835938 5.785156 19.988281 5.710938 20.101562 C 5.636719 20.214844 5.484375 20.25 5.371094 20.175781 C 3.800781 19.15625 2.59375 17.933594 1.878906 16.644531 C 0.925781 14.929688 1.496094 13.019531 1.691406 12.476562 C 2.414062 10.484375 3.722656 8.722656 5.476562 7.378906 C 5.535156 7.332031 5.550781 7.253906 5.515625 7.183594 C 4.851562 5.953125 4.941406 4.371094 5.730469 3.246094 C 6.605469 2.003906 8.253906 1.402344 9.734375 1.777344 C 11.199219 2.152344 12.269531 3.425781 12.382812 4.90625 C 14.738281 4.6875 18.234375 4.777344 21.992188 7.683594 C 22.878906 6.496094 24.464844 6 25.898438 6.472656 C 27.351562 6.957031 28.417969 8.351562 28.492188 9.871094 C 28.558594 11.246094 27.785156 12.628906 26.566406 13.3125 C 26.5 13.347656 26.472656 13.425781 26.496094 13.496094 C 27.167969 15.332031 27.359375 17.304688 27.054688 19.355469 C 26.875 20.578125 26.28125 21.585938 25.289062 22.347656 C 24.636719 22.847656 23.863281 23.253906 23.003906 23.542969 C 22.511719 23.707031 20.84375 24.144531 19.042969 24.171875 C 19.039062 24.171875 19.039062 24.171875 19.039062 24.171875 Z M 19.039062 24.171875 " fill-opacity="1" fill-rule="nonzero"/></g><path fill="#3d471d" d="M 24.988281 9.855469 C 25.28125 10.253906 25.589844 10.679688 25.613281 11.171875 C 25.621094 11.34375 25.582031 11.535156 25.453125 11.644531 C 25.316406 11.765625 25.109375 11.765625 24.945312 11.699219 C 24.777344 11.632812 24.644531 11.507812 24.515625 11.382812 C 24.234375 11.105469 23.960938 10.824219 23.722656 10.511719 C 23.585938 10.328125 23.457031 10.132812 23.410156 9.914062 C 23.363281 9.691406 23.410156 9.4375 23.582031 9.285156 C 23.765625 9.121094 24.054688 9.125 24.28125 9.222656 C 24.507812 9.324219 24.710938 9.484375 24.988281 9.855469 Z M 24.988281 9.855469 " fill-opacity="1" fill-rule="nonzero"/><path fill="#3d471d" d="M 8.820312 5.125 C 8.359375 5.300781 7.871094 5.496094 7.589844 5.898438 C 7.492188 6.042969 7.421875 6.21875 7.46875 6.382812 C 7.519531 6.558594 7.695312 6.671875 7.871094 6.703125 C 8.046875 6.738281 8.226562 6.703125 8.402344 6.667969 C 8.789062 6.589844 9.167969 6.496094 9.539062 6.359375 C 9.75 6.28125 9.960938 6.1875 10.121094 6.023438 C 10.28125 5.863281 10.375 5.621094 10.3125 5.402344 C 10.242188 5.164062 10 5.011719 9.753906 4.972656 C 9.507812 4.933594 9.25 4.960938 8.820312 5.125 Z M 8.820312 5.125 " fill-opacity="1" fill-rule="nonzero"/><path fill="#eb8f98" d="M 22.953125 13.210938 C 22.929688 13.210938 22.902344 13.203125 22.882812 13.1875 C 22.828125 13.148438 22.8125 13.070312 22.851562 13.015625 L 23.160156 12.582031 C 23.199219 12.527344 23.277344 12.515625 23.332031 12.554688 C 23.386719 12.59375 23.398438 12.667969 23.359375 12.726562 L 23.054688 13.15625 C 23.027344 13.191406 22.992188 13.210938 22.953125 13.210938 Z M 22.953125 13.210938 " fill-opacity="1" fill-rule="nonzero"/><path fill="#eb8f98" d="M 23.761719 13.445312 C 23.738281 13.445312 23.714844 13.4375 23.691406 13.421875 C 23.636719 13.382812 23.625 13.308594 23.664062 13.253906 L 23.96875 12.820312 C 24.007812 12.765625 24.085938 12.75 24.140625 12.789062 C 24.195312 12.828125 24.207031 12.90625 24.167969 12.960938 L 23.863281 13.394531 C 23.839844 13.429688 23.800781 13.445312 23.761719 13.445312 Z M 23.761719 13.445312 " fill-opacity="1" fill-rule="nonzero"/><path fill="#eb8f98" d="M 24.570312 13.683594 C 24.546875 13.683594 24.523438 13.675781 24.5 13.660156 C 24.445312 13.621094 24.433594 13.542969 24.472656 13.488281 L 24.777344 13.054688 C 24.816406 13 24.894531 12.988281 24.949219 13.027344 C 25.003906 13.066406 25.019531 13.144531 24.980469 13.199219 L 24.671875 13.632812 C 24.648438 13.664062 24.609375 13.683594 24.570312 13.683594 Z M 24.570312 13.683594 " fill-opacity="1" fill-rule="nonzero"/><path fill="#eb8f98" d="M 7.027344 8.550781 C 7 8.550781 6.976562 8.542969 6.953125 8.527344 C 6.898438 8.488281 6.886719 8.410156 6.925781 8.355469 L 7.234375 7.921875 C 7.273438 7.867188 7.347656 7.855469 7.402344 7.894531 C 7.457031 7.933594 7.472656 8.007812 7.433594 8.066406 L 7.125 8.5 C 7.101562 8.53125 7.0625 8.550781 7.027344 8.550781 Z M 7.027344 8.550781 " fill-opacity="1" fill-rule="nonzero"/><path fill="#eb8f98" d="M 7.835938 8.785156 C 7.8125 8.785156 7.785156 8.777344 7.765625 8.765625 C 7.710938 8.722656 7.695312 8.648438 7.734375 8.59375 L 8.042969 8.160156 C 8.082031 8.105469 8.15625 8.089844 8.214844 8.128906 C 8.269531 8.167969 8.28125 8.246094 8.242188 8.300781 L 7.933594 8.734375 C 7.910156 8.769531 7.875 8.785156 7.835938 8.785156 Z M 7.835938 8.785156 " fill-opacity="1" fill-rule="nonzero"/><path fill="#eb8f98" d="M 8.644531 9.023438 C 8.621094 9.023438 8.59375 9.015625 8.574219 9 C 8.519531 8.960938 8.503906 8.882812 8.542969 8.828125 L 8.851562 8.394531 C 8.890625 8.339844 8.96875 8.328125 9.023438 8.367188 C 9.078125 8.40625 9.089844 8.484375 9.050781 8.539062 L 8.746094 8.972656 C 8.71875 9.003906 8.683594 9.023438 8.644531 9.023438 Z M 8.644531 9.023438 " fill-opacity="1" fill-rule="nonzero"/><path fill="#d6f27c" d="M 22.714844 26.8125 C 22.78125 26.855469 22.820312 26.921875 22.828125 27.015625 C 22.835938 27.105469 22.8125 27.195312 22.753906 27.28125 C 22.699219 27.367188 22.628906 27.425781 22.542969 27.453125 C 22.457031 27.484375 22.378906 27.476562 22.3125 27.433594 C 22.246094 27.390625 22.210938 27.324219 22.203125 27.234375 C 22.195312 27.140625 22.21875 27.054688 22.277344 26.96875 C 22.332031 26.882812 22.402344 26.824219 22.488281 26.792969 C 22.574219 26.761719 22.648438 26.769531 22.714844 26.8125 Z M 22.714844 26.8125 " fill-opacity="1" fill-rule="nonzero"/><path fill="#d6f27c" d="M 22.660156 24.800781 C 22.714844 24.828125 22.75 24.878906 22.761719 24.953125 C 22.777344 25.027344 22.761719 25.109375 22.726562 25.191406 C 22.6875 25.273438 22.636719 25.332031 22.570312 25.371094 C 22.503906 25.414062 22.445312 25.417969 22.390625 25.394531 C 22.335938 25.367188 22.300781 25.316406 22.289062 25.242188 C 22.273438 25.164062 22.289062 25.085938 22.324219 25.003906 C 22.363281 24.921875 22.414062 24.863281 22.480469 24.820312 C 22.546875 24.78125 22.605469 24.773438 22.660156 24.800781 Z M 22.660156 24.800781 " fill-opacity="1" fill-rule="nonzero"/><path fill="#d6f27c" d="M 21.117188 27.015625 C 21.199219 27.050781 21.210938 27.128906 21.15625 27.246094 C 21.101562 27.367188 21.035156 27.40625 20.953125 27.371094 C 20.875 27.332031 20.859375 27.253906 20.914062 27.136719 C 20.96875 27.015625 21.039062 26.976562 21.117188 27.015625 Z M 21.117188 27.015625 " fill-opacity="1" fill-rule="nonzero"/><path fill="#d6f27c" d="M 23.1875 23.914062 C 23.257812 23.933594 23.277344 23.996094 23.25 24.109375 C 23.21875 24.222656 23.167969 24.265625 23.09375 24.246094 C 23.023438 24.226562 23.003906 24.164062 23.035156 24.050781 C 23.066406 23.9375 23.117188 23.894531 23.1875 23.914062 Z M 23.1875 23.914062 " fill-opacity="1" fill-rule="nonzero"/><path fill="#d6f27c" d="M 20.691406 28.371094 C 20.757812 28.40625 20.761719 28.472656 20.710938 28.578125 C 20.65625 28.679688 20.597656 28.714844 20.53125 28.683594 C 20.464844 28.648438 20.460938 28.578125 20.511719 28.476562 C 20.566406 28.375 20.625 28.339844 20.691406 28.371094 Z M 20.691406 28.371094 " fill-opacity="1" fill-rule="nonzero"/><path fill="#d6f27c" d="M 19.003906 29.796875 C 19.066406 29.835938 19.0625 29.90625 19 30.003906 C 18.9375 30.101562 18.875 30.128906 18.816406 30.089844 C 18.753906 30.050781 18.753906 29.980469 18.816406 29.882812 C 18.878906 29.785156 18.941406 29.757812 19.003906 29.796875 Z M 19.003906 29.796875 " fill-opacity="1" fill-rule="nonzero"/><path fill="#d6f27c" d="M 21.703125 29.097656 C 21.753906 29.1875 21.742188 29.296875 21.667969 29.425781 C 21.59375 29.550781 21.476562 29.65625 21.320312 29.746094 C 21.164062 29.832031 21.011719 29.875 20.867188 29.871094 C 20.722656 29.867188 20.621094 29.820312 20.570312 29.726562 C 20.519531 29.636719 20.53125 29.527344 20.609375 29.398438 C 20.683594 29.273438 20.796875 29.167969 20.953125 29.082031 C 21.109375 28.992188 21.261719 28.953125 21.410156 28.953125 C 21.554688 28.957031 21.652344 29.003906 21.703125 29.097656 Z M 21.703125 29.097656 " fill-opacity="1" fill-rule="nonzero"/><path fill="#d6f27c" d="M 2.484375 24 C 2.492188 24.105469 2.46875 24.199219 2.417969 24.277344 C 2.367188 24.355469 2.296875 24.398438 2.21875 24.402344 C 2.136719 24.410156 2.066406 24.375 2.003906 24.304688 C 1.941406 24.234375 1.90625 24.144531 1.898438 24.039062 C 1.890625 23.929688 1.914062 23.839844 1.96875 23.757812 C 2.019531 23.679688 2.085938 23.636719 2.167969 23.632812 C 2.25 23.628906 2.320312 23.660156 2.382812 23.730469 C 2.445312 23.804688 2.480469 23.890625 2.484375 24 Z M 2.484375 24 " fill-opacity="1" fill-rule="nonzero"/><path fill="#d6f27c" d="M 3.164062 21.785156 C 3.226562 21.789062 3.277344 21.824219 3.316406 21.894531 C 3.355469 21.964844 3.375 22.046875 3.367188 22.140625 C 3.363281 22.234375 3.335938 22.3125 3.285156 22.375 C 3.238281 22.4375 3.183594 22.46875 3.121094 22.464844 C 3.058594 22.460938 3.007812 22.425781 2.96875 22.355469 C 2.929688 22.285156 2.910156 22.207031 2.917969 22.113281 C 2.921875 22.015625 2.949219 21.9375 2.996094 21.875 C 3.046875 21.8125 3.101562 21.78125 3.164062 21.785156 Z M 3.164062 21.785156 " fill-opacity="1" fill-rule="nonzero"/><path fill="#d6f27c" d="M 3.519531 24.570312 C 3.609375 24.574219 3.652344 24.644531 3.644531 24.78125 C 3.636719 24.917969 3.585938 24.980469 3.496094 24.976562 C 3.40625 24.972656 3.367188 24.902344 3.375 24.765625 C 3.382812 24.628906 3.429688 24.5625 3.519531 24.570312 Z M 3.519531 24.570312 " fill-opacity="1" fill-rule="nonzero"/><path fill="#d6f27c" d="M 3.101562 20.710938 C 3.171875 20.726562 3.199219 20.792969 3.171875 20.910156 C 3.148438 21.03125 3.097656 21.082031 3.023438 21.066406 C 2.949219 21.050781 2.925781 20.980469 2.953125 20.863281 C 2.976562 20.746094 3.027344 20.695312 3.101562 20.710938 Z M 3.101562 20.710938 " fill-opacity="1" fill-rule="nonzero"/><path fill="#d6f27c" d="M 3.265625 26.03125 C 3.34375 26.035156 3.378906 26.09375 3.378906 26.214844 C 3.375 26.335938 3.335938 26.398438 3.261719 26.394531 C 3.1875 26.394531 3.148438 26.332031 3.152344 26.210938 C 3.152344 26.089844 3.191406 26.03125 3.265625 26.03125 Z M 3.265625 26.03125 " fill-opacity="1" fill-rule="nonzero"/><path fill="#d6f27c" d="M 4.257812 28.316406 C 4.265625 28.4375 4.234375 28.503906 4.160156 28.507812 C 4.085938 28.515625 4.042969 28.457031 4.03125 28.335938 C 4.023438 28.214844 4.054688 28.152344 4.132812 28.144531 C 4.207031 28.140625 4.25 28.199219 4.257812 28.316406 Z M 4.257812 28.316406 " fill-opacity="1" fill-rule="nonzero"/><path fill="#d6f27c" d="M 2.695312 26.582031 C 2.796875 26.738281 2.847656 26.890625 2.855469 27.042969 C 2.859375 27.191406 2.816406 27.296875 2.726562 27.355469 C 2.632812 27.417969 2.523438 27.410156 2.386719 27.34375 C 2.253906 27.277344 2.136719 27.164062 2.035156 27.007812 C 1.9375 26.855469 1.882812 26.699219 1.878906 26.550781 C 1.871094 26.398438 1.914062 26.292969 2.003906 26.234375 C 2.097656 26.175781 2.210938 26.179688 2.34375 26.246094 C 2.480469 26.316406 2.597656 26.425781 2.695312 26.582031 Z M 2.695312 26.582031 " fill-opacity="1" fill-rule="nonzero"/><path fill="#d6f27c" d="M 3.167969 11.957031 C 3.246094 11.964844 3.3125 12.007812 3.363281 12.089844 C 3.410156 12.167969 3.433594 12.261719 3.421875 12.367188 C 3.410156 12.476562 3.375 12.5625 3.308594 12.632812 C 3.246094 12.699219 3.171875 12.730469 3.089844 12.722656 C 3.011719 12.714844 2.945312 12.671875 2.894531 12.589844 C 2.84375 12.511719 2.824219 12.417969 2.835938 12.308594 C 2.847656 12.203125 2.882812 12.117188 2.949219 12.046875 C 3.011719 11.976562 3.085938 11.949219 3.167969 11.957031 Z M 3.167969 11.957031 " fill-opacity="1" fill-rule="nonzero"/><path fill="#d6f27c" d="M 4.449219 10.292969 C 4.507812 10.308594 4.554688 10.351562 4.582031 10.429688 C 4.609375 10.503906 4.613281 10.585938 4.59375 10.675781 C 4.570312 10.769531 4.53125 10.84375 4.476562 10.898438 C 4.417969 10.953125 4.359375 10.972656 4.296875 10.957031 C 4.234375 10.945312 4.191406 10.898438 4.164062 10.824219 C 4.136719 10.75 4.132812 10.667969 4.152344 10.574219 C 4.171875 10.484375 4.214844 10.410156 4.269531 10.355469 C 4.328125 10.300781 4.386719 10.28125 4.449219 10.292969 Z M 4.449219 10.292969 " fill-opacity="1" fill-rule="nonzero"/><path fill="#d6f27c" d="M 4.347656 13.101562 C 4.4375 13.121094 4.464844 13.199219 4.433594 13.332031 C 4.40625 13.464844 4.34375 13.519531 4.257812 13.5 C 4.167969 13.480469 4.140625 13.402344 4.171875 13.269531 C 4.199219 13.136719 4.257812 13.082031 4.347656 13.101562 Z M 4.347656 13.101562 " fill-opacity="1" fill-rule="nonzero"/><path fill="#d6f27c" d="M 4.5625 9.222656 C 4.632812 9.253906 4.644531 9.324219 4.601562 9.433594 C 4.554688 9.546875 4.5 9.589844 4.429688 9.5625 C 4.359375 9.535156 4.347656 9.464844 4.390625 9.351562 C 4.433594 9.238281 4.492188 9.195312 4.5625 9.222656 Z M 4.5625 9.222656 " fill-opacity="1" fill-rule="nonzero"/><path fill="#d6f27c" d="M 3.859375 14.503906 C 3.933594 14.515625 3.960938 14.582031 3.9375 14.703125 C 3.917969 14.820312 3.867188 14.875 3.792969 14.859375 C 3.71875 14.847656 3.695312 14.78125 3.714844 14.664062 C 3.738281 14.542969 3.785156 14.492188 3.859375 14.503906 Z M 3.859375 14.503906 " fill-opacity="1" fill-rule="nonzero"/><path fill="#d6f27c" d="M 4.367188 16.730469 C 4.441406 16.738281 4.476562 16.800781 4.464844 16.921875 C 4.453125 17.042969 4.410156 17.101562 4.335938 17.09375 C 4.261719 17.085938 4.230469 17.023438 4.238281 16.902344 C 4.25 16.78125 4.292969 16.726562 4.367188 16.730469 Z M 4.367188 16.730469 " fill-opacity="1" fill-rule="nonzero"/><path fill="#d6f27c" d="M 3.207031 14.949219 C 3.28125 15.121094 3.308594 15.28125 3.289062 15.429688 C 3.269531 15.582031 3.210938 15.675781 3.109375 15.71875 C 3.011719 15.765625 2.898438 15.742188 2.777344 15.652344 C 2.65625 15.5625 2.558594 15.433594 2.484375 15.261719 C 2.414062 15.09375 2.386719 14.933594 2.40625 14.785156 C 2.425781 14.632812 2.484375 14.535156 2.582031 14.492188 C 2.683594 14.449219 2.792969 14.472656 2.914062 14.5625 C 3.035156 14.652344 3.132812 14.78125 3.207031 14.949219 Z M 3.207031 14.949219 " fill-opacity="1" fill-rule="nonzero"/><path fill="#d6f27c" d="M 25.449219 18.734375 C 25.519531 18.773438 25.5625 18.839844 25.574219 18.9375 C 25.585938 19.03125 25.566406 19.121094 25.511719 19.214844 C 25.460938 19.308594 25.390625 19.371094 25.304688 19.410156 C 25.214844 19.445312 25.136719 19.441406 25.066406 19.402344 C 24.996094 19.363281 24.957031 19.292969 24.941406 19.199219 C 24.929688 19.105469 24.953125 19.011719 25.003906 18.921875 C 25.058594 18.828125 25.128906 18.765625 25.214844 18.726562 C 25.300781 18.691406 25.378906 18.691406 25.449219 18.734375 Z M 25.449219 18.734375 " fill-opacity="1" fill-rule="nonzero"/><path fill="#d6f27c" d="M 25.371094 16.632812 C 25.425781 16.65625 25.464844 16.707031 25.480469 16.785156 C 25.496094 16.863281 25.484375 16.949219 25.449219 17.035156 C 25.410156 17.121094 25.359375 17.1875 25.292969 17.230469 C 25.226562 17.273438 25.167969 17.285156 25.109375 17.261719 C 25.050781 17.238281 25.015625 17.183594 25 17.105469 C 24.984375 17.027344 24.996094 16.945312 25.03125 16.859375 C 25.066406 16.773438 25.117188 16.707031 25.183594 16.664062 C 25.25 16.617188 25.3125 16.609375 25.371094 16.632812 Z M 25.371094 16.632812 " fill-opacity="1" fill-rule="nonzero"/><path fill="#d6f27c" d="M 23.824219 18.976562 C 23.910156 19.011719 23.925781 19.089844 23.871094 19.214844 C 23.820312 19.339844 23.75 19.386719 23.667969 19.351562 C 23.585938 19.316406 23.570312 19.234375 23.621094 19.109375 C 23.675781 18.984375 23.742188 18.9375 23.824219 18.976562 Z M 23.824219 18.976562 " fill-opacity="1" fill-rule="nonzero"/><path fill="#d6f27c" d="M 25.898438 15.695312 C 25.972656 15.714844 25.996094 15.78125 25.964844 15.898438 C 25.9375 16.015625 25.886719 16.066406 25.8125 16.046875 C 25.738281 16.027344 25.71875 15.960938 25.746094 15.84375 C 25.777344 15.726562 25.828125 15.675781 25.898438 15.695312 Z M 25.898438 15.695312 " fill-opacity="1" fill-rule="nonzero"/><path fill="#d6f27c" d="M 23.410156 20.394531 C 23.476562 20.429688 23.484375 20.5 23.433594 20.609375 C 23.382812 20.71875 23.324219 20.757812 23.253906 20.722656 C 23.1875 20.691406 23.179688 20.621094 23.230469 20.511719 C 23.28125 20.402344 23.339844 20.363281 23.410156 20.394531 Z M 23.410156 20.394531 " fill-opacity="1" fill-rule="nonzero"/><path fill="#d6f27c" d="M 21.707031 21.910156 C 21.769531 21.949219 21.773438 22.019531 21.710938 22.125 C 21.648438 22.230469 21.585938 22.261719 21.519531 22.222656 C 21.457031 22.183594 21.453125 22.113281 21.515625 22.007812 C 21.578125 21.90625 21.640625 21.871094 21.707031 21.910156 Z M 21.707031 21.910156 " fill-opacity="1" fill-rule="nonzero"/><path fill="#d6f27c" d="M 24.453125 21.136719 C 24.507812 21.230469 24.5 21.34375 24.429688 21.476562 C 24.359375 21.613281 24.242188 21.726562 24.085938 21.820312 C 23.929688 21.914062 23.773438 21.964844 23.621094 21.964844 C 23.472656 21.964844 23.367188 21.921875 23.3125 21.828125 C 23.257812 21.734375 23.265625 21.621094 23.335938 21.488281 C 23.410156 21.355469 23.523438 21.238281 23.679688 21.144531 C 23.835938 21.050781 23.992188 21 24.144531 21 C 24.292969 21 24.398438 21.042969 24.453125 21.136719 Z M 24.453125 21.136719 " fill-opacity="1" fill-rule="nonzero"/><path fill="#a3c14a" d="M 5.667969 27.480469 C 5.667969 27.480469 7.925781 33.292969 9.859375 31.914062 C 11.792969 30.539062 11.179688 28.945312 11.179688 28.945312 C 11.179688 28.945312 10.953125 26.765625 5.667969 27.480469 Z M 5.667969 27.480469 " fill-opacity="1" fill-rule="nonzero"/><path fill="#3d471d" d="M 9.21875 32.421875 C 9.054688 32.421875 8.890625 32.398438 8.726562 32.347656 C 8.214844 32.183594 7.851562 31.792969 7.535156 31.394531 C 6.625 30.246094 5.898438 28.980469 5.382812 27.632812 C 5.335938 27.507812 5.398438 27.367188 5.523438 27.316406 C 5.652344 27.269531 5.792969 27.332031 5.839844 27.457031 C 6.339844 28.757812 7.039062 29.976562 7.917969 31.085938 C 8.167969 31.402344 8.46875 31.75 8.871094 31.878906 C 9.527344 32.085938 10.253906 31.640625 10.578125 31.09375 C 10.941406 30.484375 10.972656 29.71875 11 29.046875 C 11.003906 28.910156 11.121094 28.808594 11.253906 28.8125 C 11.390625 28.816406 11.496094 28.929688 11.488281 29.066406 C 11.457031 29.800781 11.421875 30.628906 10.996094 31.347656 C 10.65625 31.921875 9.960938 32.421875 9.21875 32.421875 Z M 9.21875 32.421875 " fill-opacity="1" fill-rule="nonzero"/><path fill="#a3c14a" d="M 13.382812 29.09375 C 13.382812 29.09375 13.519531 32.761719 16.113281 32.113281 C 16.113281 32.113281 18.242188 30.433594 19.039062 27.546875 C 19.039062 27.546875 14.648438 26.277344 13.382812 29.09375 Z M 13.382812 29.09375 " fill-opacity="1" fill-rule="nonzero"/><path fill="#3d471d" d="M 15.503906 32.421875 C 14.757812 32.421875 14.066406 31.921875 13.722656 31.347656 C 13.296875 30.628906 13.261719 29.800781 13.230469 29.066406 C 13.226562 28.929688 13.332031 28.816406 13.464844 28.8125 C 13.605469 28.808594 13.714844 28.910156 13.722656 29.046875 C 13.75 29.71875 13.78125 30.484375 14.144531 31.09375 C 14.46875 31.640625 15.195312 32.082031 15.847656 31.878906 C 16.253906 31.75 16.554688 31.402344 16.804688 31.085938 C 17.683594 29.976562 18.382812 28.753906 18.878906 27.457031 C 18.929688 27.332031 19.070312 27.269531 19.195312 27.316406 C 19.324219 27.367188 19.386719 27.507812 19.335938 27.632812 C 18.820312 28.980469 18.097656 30.242188 17.1875 31.394531 C 16.871094 31.792969 16.507812 32.183594 15.996094 32.347656 C 15.832031 32.398438 15.667969 32.421875 15.503906 32.421875 Z M 15.503906 32.421875 " fill-opacity="1" fill-rule="nonzero"/><g fill="#3d471d" fill-opacity="1"><g transform="translate(38.916297, 24.434377)"><g><path d="M 8.59375 -1.484375 C 9.675781 -1.484375 10.625 -1.757812 11.4375 -2.3125 C 12.257812 -2.863281 12.867188 -3.601562 13.265625 -4.53125 L 15.078125 -4.53125 C 14.566406 -3.09375 13.734375 -1.960938 12.578125 -1.140625 C 11.347656 -0.253906 9.894531 0.1875 8.21875 0.1875 C 6 0.1875 4.207031 -0.566406 2.84375 -2.078125 C 1.539062 -3.523438 0.890625 -5.351562 0.890625 -7.5625 C 0.890625 -9.78125 1.539062 -11.613281 2.84375 -13.0625 C 4.207031 -14.570312 6 -15.328125 8.21875 -15.328125 C 9.894531 -15.328125 11.347656 -14.882812 12.578125 -14 C 13.734375 -13.175781 14.566406 -12.046875 15.078125 -10.609375 L 13.265625 -10.609375 C 12.867188 -11.546875 12.257812 -12.285156 11.4375 -12.828125 C 10.625 -13.378906 9.675781 -13.65625 8.59375 -13.65625 C 7.519531 -13.65625 6.625 -13.5 5.90625 -13.1875 C 5.1875 -12.875 4.582031 -12.441406 4.09375 -11.890625 C 3.101562 -10.773438 2.609375 -9.335938 2.609375 -7.578125 C 2.609375 -5.804688 3.101562 -4.363281 4.09375 -3.25 C 5.132812 -2.070312 6.632812 -1.484375 8.59375 -1.484375 Z M 8.59375 -1.484375 "/></g></g></g><g fill="#3d471d" fill-opacity="1"><g transform="translate(54.703051, 24.434377)"><g><path d="M 6.453125 -11.625 C 8.160156 -11.625 9.546875 -11.050781 10.609375 -9.90625 C 11.617188 -8.8125 12.125 -7.414062 12.125 -5.71875 C 12.125 -4.019531 11.617188 -2.625 10.609375 -1.53125 C 9.546875 -0.382812 8.160156 0.1875 6.453125 0.1875 C 4.742188 0.1875 3.351562 -0.382812 2.28125 -1.53125 C 1.28125 -2.625 0.78125 -4.019531 0.78125 -5.71875 C 0.78125 -7.414062 1.28125 -8.8125 2.28125 -9.90625 C 3.351562 -11.050781 4.742188 -11.625 6.453125 -11.625 Z M 6.453125 -1.375 C 7.679688 -1.375 8.65625 -1.800781 9.375 -2.65625 C 10.0625 -3.457031 10.40625 -4.476562 10.40625 -5.71875 C 10.40625 -6.957031 10.0625 -7.976562 9.375 -8.78125 C 8.65625 -9.632812 7.679688 -10.0625 6.453125 -10.0625 C 5.210938 -10.0625 4.234375 -9.632812 3.515625 -8.78125 C 2.835938 -7.976562 2.5 -6.957031 2.5 -5.71875 C 2.5 -4.476562 2.835938 -3.457031 3.515625 -2.65625 C 4.234375 -1.800781 5.210938 -1.375 6.453125 -1.375 Z M 6.453125 -1.375 "/></g></g></g><g fill="#3d471d" fill-opacity="1"><g transform="translate(67.607004, 24.434377)"><g><path d="M 1.21875 -7.59375 L 6.9375 -7.59375 L 6.9375 -5.921875 L 1.21875 -5.921875 Z M 1.21875 -7.59375 "/></g></g></g><g fill="#3d471d" fill-opacity="1"><g transform="translate(75.752048, 24.434377)"><g><path d="M 15.078125 0 L 13.171875 0 L 11.328125 -4.390625 L 3.8125 -4.390625 L 1.96875 0 L 0.0625 0 L 6.5 -15.140625 L 8.640625 -15.140625 Z M 10.65625 -5.96875 L 7.578125 -13.359375 L 4.484375 -5.96875 Z M 10.65625 -5.96875 "/></g></g></g><g fill="#3d471d" fill-opacity="1"><g transform="translate(90.898179, 24.434377)"><g><path d="M 3.203125 -9.609375 C 4.117188 -10.953125 5.484375 -11.625 7.296875 -11.625 C 8.941406 -11.625 10.273438 -11.050781 11.296875 -9.90625 C 12.316406 -8.78125 12.828125 -7.382812 12.828125 -5.71875 C 12.828125 -4.050781 12.316406 -2.65625 11.296875 -1.53125 C 10.273438 -0.382812 8.898438 0.1875 7.171875 0.1875 C 5.453125 0.1875 4.128906 -0.492188 3.203125 -1.859375 L 3.203125 4.53125 L 1.484375 4.53125 L 1.484375 -11.4375 L 3.203125 -11.4375 Z M 7.0625 -10.0625 C 5.832031 -10.0625 4.859375 -9.632812 4.140625 -8.78125 C 3.453125 -7.976562 3.109375 -6.957031 3.109375 -5.71875 C 3.109375 -4.476562 3.453125 -3.457031 4.140625 -2.65625 C 4.859375 -1.800781 5.832031 -1.375 7.0625 -1.375 C 8.28125 -1.375 9.273438 -1.800781 10.046875 -2.65625 C 10.765625 -3.457031 11.125 -4.476562 11.125 -5.71875 C 11.125 -6.957031 10.765625 -7.976562 10.046875 -8.78125 C 9.273438 -9.632812 8.28125 -10.0625 7.0625 -10.0625 Z M 7.0625 -10.0625 "/></g></g></g><g fill="#3d471d" fill-opacity="1"><g transform="translate(104.488509, 24.434377)"><g><path d="M 3.203125 -9.609375 C 4.117188 -10.953125 5.484375 -11.625 7.296875 -11.625 C 8.941406 -11.625 10.273438 -11.050781 11.296875 -9.90625 C 12.316406 -8.78125 12.828125 -7.382812 12.828125 -5.71875 C 12.828125 -4.050781 12.316406 -2.65625 11.296875 -1.53125 C 10.273438 -0.382812 8.898438 0.1875 7.171875 0.1875 C 5.453125 0.1875 4.128906 -0.492188 3.203125 -1.859375 L 3.203125 4.53125 L 1.484375 4.53125 L 1.484375 -11.4375 L 3.203125 -11.4375 Z M 7.0625 -10.0625 C 5.832031 -10.0625 4.859375 -9.632812 4.140625 -8.78125 C 3.453125 -7.976562 3.109375 -6.957031 3.109375 -5.71875 C 3.109375 -4.476562 3.453125 -3.457031 4.140625 -2.65625 C 4.859375 -1.800781 5.832031 -1.375 7.0625 -1.375 C 8.28125 -1.375 9.273438 -1.800781 10.046875 -2.65625 C 10.765625 -3.457031 11.125 -4.476562 11.125 -5.71875 C 11.125 -6.957031 10.765625 -7.976562 10.046875 -8.78125 C 9.273438 -9.632812 8.28125 -10.0625 7.0625 -10.0625 Z M 7.0625 -10.0625 "/></g></g></g><g fill="#3d471d" fill-opacity="1"><g transform="translate(118.07884, 24.434377)"><g><path d="M 3.203125 0 L 1.484375 0 L 1.484375 -16.015625 L 3.203125 -16.015625 Z M 3.203125 0 "/></g></g></g><g fill="#3d471d" fill-opacity="1"><g transform="translate(122.769109, 24.434377)"><g><path d="M 4.53125 4.53125 L 2.671875 4.53125 L 4.765625 -0.15625 L 0.09375 -11.4375 L 1.984375 -11.4375 L 5.671875 -2.0625 L 9.421875 -11.4375 L 11.296875 -11.4375 Z M 4.53125 4.53125 "/></g></g></g></svg>