<svg xmlns="http://www.w3.org/2000/svg" xmlns:xlink="http://www.w3.org/1999/xlink" width="362" zoomAndPan="magnify" viewBox="0 0 271.5 282.749996" height="377" preserveAspectRatio="xMidYMid meet" version="1.0"><defs><filter x="0%" y="0%" width="100%" height="100%" id="63ef2d67e0"><feColorMatrix values="0 0 0 0 1 0 0 0 0 1 0 0 0 0 1 0 0 0 1 0" color-interpolation-filters="sRGB"/></filter><clipPath id="105b162113"><path d="M 0 0.136719 L 271 0.136719 L 271 282 L 0 282 Z M 0 0.136719 " clip-rule="nonzero"/></clipPath><mask id="59fabd9410"><g filter="url(#63ef2d67e0)"><rect x="-27.15" width="325.8" fill="#000000" y="-28.275" height="339.299995" fill-opacity="0.14"/></g></mask><clipPath id="d7d3cd9f2a"><path d="M 1 0.136719 L 270 0.136719 L 270 281.378906 L 1 281.378906 Z M 1 0.136719 " clip-rule="nonzero"/></clipPath><clipPath id="4bf8449bf2"><rect x="0" width="271" y="0" height="282"/></clipPath><mask id="9e842cd5aa"><g filter="url(#63ef2d67e0)"><rect x="-27.15" width="325.8" fill="#000000" y="-28.275" height="339.299995" fill-opacity="0.14"/></g></mask><clipPath id="9c308081ad"><path d="M 1 0.136719 L 270 0.136719 L 270 281.378906 L 1 281.378906 Z M 1 0.136719 " clip-rule="nonzero"/></clipPath><clipPath id="1993ae45a3"><rect x="0" width="271" y="0" height="282"/></clipPath></defs><g clip-path="url(#105b162113)"><g mask="url(#59fabd9410)"><g transform="matrix(1, 0, 0, 1, 0, -0.000000000000011602)"><g clip-path="url(#4bf8449bf2)"><g clip-path="url(#d7d3cd9f2a)"><path fill="#497497" d="M 62.101562 255.851562 C 53.238281 250.085938 45.023438 243.277344 37.882812 235.503906 C 38.105469 235.523438 38.289062 235.558594 38.53125 235.570312 C 35.183594 230.5625 32.4375 225.90625 30.109375 221.074219 C 30.460938 220.785156 30.769531 220.601562 31.054688 220.457031 C 31.195312 220.675781 31.328125 220.898438 31.460938 221.117188 C 32.183594 222.324219 33.128906 223.367188 33.984375 224.464844 L 36.621094 227.738281 C 37.609375 228.992188 38.488281 230.339844 39.445312 231.636719 C 40.421875 232.910156 41.433594 234.175781 42.550781 235.316406 C 45.726562 238.445312 49.328125 240.984375 52.90625 243.5625 C 53.675781 244.320312 54.445312 245.078125 55.238281 245.816406 C 57.398438 247.921875 59.707031 249.867188 62 251.867188 C 64.375 253.746094 66.734375 255.699219 69.261719 257.402344 C 76.519531 262.507812 84.238281 267.339844 92.695312 270.777344 C 92.378906 270.679688 92.058594 270.589844 91.742188 270.492188 C 81.273438 266.824219 71.269531 261.957031 62.101562 255.851562 Z M 18.050781 203.632812 C 17.152344 201.261719 16.207031 198.890625 15.578125 196.441406 C 15.019531 193.96875 14.613281 191.476562 15.042969 188.828125 C 15.117188 188.335938 14.941406 187.820312 14.800781 187.347656 L 14.109375 184.996094 L 13.503906 182.625 C 13.121094 181.042969 12.691406 179.472656 12.484375 177.847656 C 11.285156 170.367188 10.902344 162.824219 11.273438 155.378906 C 11.308594 154.785156 11.957031 154.203125 12.382812 153.621094 C 12.320312 157.859375 12.59375 162.078125 12.824219 166.328125 C 13.21875 171.742188 13.492188 177.285156 14.757812 182.667969 C 15.207031 185.074219 16.042969 187.367188 16.777344 189.707031 C 17.589844 192.015625 18.46875 194.296875 19.304688 196.605469 C 19.535156 197.230469 19.785156 197.855469 20.027344 198.472656 C 20.082031 198.757812 20.148438 199.03125 20.203125 199.304688 C 20.554688 201.328125 20.949219 203.347656 21.90625 205.09375 C 22.367188 205.984375 23.003906 206.773438 23.871094 207.433594 C 24.167969 208.058594 24.464844 208.695312 24.773438 209.320312 C 24.542969 209.367188 24.3125 209.410156 24.046875 209.453125 C 25.902344 215.308594 27.945312 221.027344 31.152344 226.089844 C 32.007812 227.367188 32.65625 228.640625 33.171875 230.011719 C 32.292969 228.925781 31.417969 227.816406 30.570312 226.683594 C 25.308594 219.613281 21.246094 211.726562 18.050781 203.632812 Z M 12.382812 153.378906 C 11.242188 152.226562 11.175781 151.007812 11.40625 149.789062 C 11.648438 148.558594 12.273438 147.328125 12.308594 146.109375 C 12.296875 147.316406 12.230469 148.523438 12.261719 149.742188 C 12.296875 150.953125 12.339844 152.171875 12.382812 153.378906 Z M 11.265625 143.054688 C 11.539062 143.800781 14.140625 144.691406 12.320312 146.054688 C 12.320312 146.054688 12.320312 146.042969 12.320312 146.042969 C 11.054688 144.769531 10.945312 144.648438 11.265625 143.054688 Z M 9.289062 135.984375 C 8.605469 137.410156 8.242188 138.894531 7.902344 140.386719 C 7.5625 141.871094 7.34375 143.386719 7.234375 144.890625 L 6.804688 149.425781 C 6.695312 150.941406 6.542969 152.457031 6.234375 153.972656 C 5.839844 155.816406 5.785156 157.683594 5.683594 159.5625 C 5.574219 161.441406 5.621094 163.316406 5.621094 165.207031 C 4.816406 162.132812 4.398438 159 4.179688 155.871094 C 4.136719 152.730469 4.246094 149.578125 5.148438 146.503906 C 5.675781 144.527344 5.355469 142.398438 5.609375 140.355469 C 5.90625 136.984375 6.476562 133.65625 7.023438 130.328125 L 8.066406 125.386719 C 8.398438 123.738281 8.902344 122.125 9.308594 120.5 C 9.375 120.246094 9.507812 119.984375 9.464844 119.730469 C 9.15625 118.039062 9.375 116.433594 9.714844 114.855469 C 10.066406 113.273438 10.617188 111.746094 11.273438 110.253906 C 11.921875 108.757812 12.503906 107.253906 13.074219 105.75 C 13.636719 104.246094 14.054688 102.6875 14.152344 101.003906 C 15.207031 100.105469 15.449219 98.777344 15.832031 97.492188 C 16.21875 96.226562 16.734375 95.019531 18.480469 94.601562 C 21.300781 89.289062 24.628906 84.257812 28.164062 79.4375 L 27.089844 78.613281 C 25.386719 80.632812 23.828125 82.773438 22.246094 84.882812 C 20.761719 87.058594 19.203125 89.179688 17.886719 91.40625 C 18.359375 88.597656 22.683594 80.675781 30.261719 72.574219 C 37.71875 64.390625 48.480469 56.332031 59.046875 51.707031 C 54.117188 54.769531 49.480469 58.328125 44.804688 61.867188 C 42.882812 63.195312 41.332031 64.886719 39.804688 66.578125 C 38.300781 68.300781 37.027344 70.199219 35.710938 72.078125 C 32.460938 77.097656 28.96875 81.929688 26.179688 87.179688 C 25.125 89.375 23.96875 91.515625 23.191406 93.835938 C 22.785156 94.976562 22.398438 96.140625 22.058594 97.304688 C 21.742188 98.480469 21.5 99.6875 21.300781 100.90625 C 22.507812 98.085938 23.949219 95.382812 25.355469 92.660156 L 26.296875 93.164062 C 25.828125 94.1875 25.421875 95.273438 25.023438 96.347656 C 22.871094 99.347656 21.09375 102.621094 19.796875 106.132812 C 19.6875 106.417969 19.589844 106.726562 19.46875 107.023438 C 19.191406 107.472656 18.941406 107.925781 18.710938 108.394531 C 18.160156 109.59375 17.777344 110.855469 17.390625 112.121094 C 16.589844 114.613281 16.195312 117.203125 14.941406 119.574219 C 12.492188 124.804688 11.660156 130.644531 9.289062 135.984375 Z M 4.894531 169.226562 L 5.53125 169.128906 C 6.035156 171.9375 6.496094 174.761719 7.191406 177.539062 L 6.5625 177.691406 C 5.859375 174.894531 5.398438 172.058594 4.894531 169.226562 Z M 8.132812 189.796875 C 7.246094 187.335938 6.585938 184.808594 5.871094 182.304688 L 6.300781 182.21875 C 7.015625 184.710938 7.660156 187.226562 8.550781 189.664062 Z M 92.082031 37.78125 C 85.921875 41.933594 79.046875 43.425781 72.390625 46.261719 L 71.875 45.238281 C 78.398438 42.128906 85.171875 39.625 92.082031 37.78125 Z M 96.617188 28.886719 C 94.660156 29.269531 92.816406 29.324219 90.875 29.140625 C 90.675781 29.128906 90.46875 29.105469 90.269531 29.09375 C 90.445312 29.0625 90.621094 29.019531 90.808594 28.996094 C 94.597656 28.558594 98.375 28.347656 102.128906 28.316406 C 100.273438 28.402344 98.441406 28.578125 96.617188 28.886719 Z M 116.988281 29.203125 C 115.945312 29.730469 114.945312 30.578125 114.035156 31.839844 C 114.320312 30.511719 114.472656 29.839844 114.691406 28.789062 C 114.835938 28.796875 114.980469 28.808594 115.109375 28.820312 C 115.800781 28.886719 116.417969 28.984375 116.988281 29.203125 Z M 138.917969 30.90625 C 137.449219 30.730469 135.976562 30.578125 134.492188 30.457031 C 133.011719 30.359375 131.519531 30.171875 130.023438 29.917969 C 128.828125 29.730469 127.628906 29.535156 126.445312 29.304688 C 131.363281 29.433594 136.140625 29.796875 140.90625 30.457031 C 140.5 30.6875 139.796875 30.828125 138.917969 30.90625 Z M 171.230469 34.53125 L 175.894531 36.320312 L 175.402344 37.417969 L 171.0625 34.894531 Z M 112.707031 274.367188 C 112.726562 274.378906 112.761719 274.378906 112.792969 274.390625 C 108.652344 273.851562 103.128906 272.613281 97.109375 270.382812 C 97.101562 270.371094 97.089844 270.371094 97.078125 270.359375 C 102.164062 272.085938 107.378906 273.457031 112.707031 274.367188 Z M 218.8125 231.847656 L 219.101562 232.140625 L 215.628906 235.753906 L 214.816406 234.878906 Z M 234.683594 204.65625 Z M 106.609375 31.246094 C 105.699219 31.402344 104.789062 31.578125 103.898438 31.808594 L 103.667969 30.960938 C 104.589844 30.65625 105.511719 30.390625 106.457031 30.160156 Z M 28.617188 216.472656 C 28.738281 216.679688 28.867188 216.886719 28.988281 217.097656 C 28.835938 216.898438 28.671875 216.722656 28.527344 216.527344 Z M 267.902344 199.339844 C 266.398438 198.65625 265.113281 199.164062 264.324219 200.589844 C 263.445312 202.195312 262.546875 203.777344 261.730469 205.390625 C 259.171875 210.1875 256.78125 215.121094 253.429688 219.371094 C 248.367188 225.859375 243.269531 232.199219 237.625 237.984375 C 231.980469 243.761719 225.832031 249 219.011719 253.128906 C 216.222656 254.886719 213.335938 256.488281 210.535156 258.179688 C 207.65625 259.75 204.855469 261.410156 201.925781 262.871094 C 199.070312 264.417969 196.09375 265.738281 193.160156 267.109375 C 190.164062 268.351562 187.195312 269.625 184.121094 270.613281 C 175.371094 273.578125 166.40625 275.675781 157.425781 276.925781 L 149.484375 278.136719 C 146.816406 278.398438 144.160156 278.695312 141.5 278.53125 C 139.09375 278.378906 136.710938 278.3125 134.339844 278.203125 C 144.71875 277.914062 155.085938 276.289062 165.046875 273.359375 C 165.640625 273.195312 166.167969 272.851562 166.671875 272.445312 C 168.253906 272.03125 169.8125 271.578125 171.351562 271.0625 C 184.277344 266.902344 196.257812 260.222656 207.339844 252.425781 C 212.390625 248.855469 217.234375 244.96875 221.910156 240.863281 C 226.558594 236.710938 230.925781 232.21875 235.058594 227.476562 C 236.988281 225.113281 239.371094 223.113281 238.121094 219.425781 C 238.8125 218.632812 239.546875 217.867188 240.394531 217.152344 C 240.867188 216.757812 240.933594 215.953125 241.152344 215.328125 C 241.570312 214.023438 241.710938 212.59375 242.328125 211.429688 C 244.128906 208.015625 245.753906 204.523438 247.226562 200.976562 C 248.53125 198.449219 249.804688 195.902344 251.003906 193.300781 C 253.574219 187.597656 255.746094 181.691406 257.59375 175.617188 C 259.304688 169.535156 260.722656 163.308594 261.589844 156.96875 C 261.851562 155.324219 261.886719 153.652344 261.964844 151.984375 C 262.007812 150.65625 261.722656 149.457031 259.800781 149.273438 C 259.371094 149.238281 259.007812 149.25 258.65625 149.304688 C 258.820312 143.847656 258.667969 138.367188 258.097656 132.917969 C 257.480469 126.671875 256.503906 120.433594 255.121094 114.273438 C 252.066406 99.929688 246.917969 85.871094 239.417969 72.738281 C 236.417969 67.542969 233.070312 62.523438 229.410156 57.671875 C 225.699219 52.882812 221.789062 48.160156 217.484375 43.777344 C 207.789062 33.640625 196.519531 24.648438 183.835938 17.542969 C 169.152344 9.425781 152.703125 3.824219 135.425781 1.246094 L 130.308594 0.597656 C 128.597656 0.421875 126.871094 0.3125 125.160156 0.167969 C 123.601562 0.0351562 122.160156 0.246094 122.105469 2.199219 C 122.050781 3.859375 123.019531 4.847656 124.644531 5.023438 C 126.457031 5.207031 128.265625 5.429688 130.066406 5.558594 C 135.492188 6.066406 140.960938 6.363281 146.167969 7.8125 C 154.117188 9.964844 161.925781 12.214844 169.449219 15.179688 C 176.949219 18.15625 184.164062 21.792969 190.613281 26.480469 C 193.3125 28.382812 195.90625 30.433594 198.550781 32.355469 C 201.121094 34.398438 203.726562 36.34375 206.207031 38.472656 C 208.742188 40.515625 211.117188 42.757812 213.511719 44.921875 C 215.804688 47.214844 218.132812 49.445312 220.21875 51.90625 C 226.359375 58.824219 231.75 66.28125 236.386719 74.078125 L 240.558594 80.941406 C 241.84375 83.292969 243.140625 85.628906 244.019531 88.144531 C 245.007812 90.980469 246.105469 93.722656 247.070312 96.515625 C 248.148438 99.269531 249.046875 102.082031 250.015625 104.859375 C 251.78125 110.460938 253.398438 116.148438 254.023438 121.992188 C 254.671875 127.042969 255.417969 132.074219 255.847656 137.148438 C 256.308594 144.824219 256.132812 152.523438 255.296875 160.132812 C 253.046875 167.851562 249.925781 175.144531 246.355469 182.007812 C 246.90625 179.691406 247.5 177.386719 248.246094 175.113281 C 249.617188 171.039062 250.167969 166.734375 250.816406 162.472656 C 251.167969 160.339844 251.410156 158.199219 251.914062 156.082031 C 252.355469 153.960938 252.878906 151.832031 253.726562 149.6875 C 253.824219 149.4375 253.769531 149.160156 253.78125 148.898438 C 254.351562 138.09375 253.804688 127.042969 251.320312 116.316406 C 249.9375 109.910156 247.828125 103.683594 245.359375 97.613281 C 244.171875 94.546875 242.746094 91.582031 241.371094 88.585938 C 239.878906 85.652344 238.449219 82.664062 236.8125 79.789062 C 235.289062 76.867188 233.476562 74.109375 231.664062 71.34375 C 229.730469 68.664062 227.777344 65.984375 225.578125 63.5 C 216.75 53.191406 205.953125 44.734375 194.476562 37.527344 C 189.230469 34.257812 183.78125 31.292969 178.179688 28.566406 C 172.558594 25.886719 166.726562 23.59375 160.753906 21.617188 C 157.808594 20.738281 155.03125 19.300781 152.085938 21.945312 C 151.503906 22.460938 150.496094 22.496094 149.714844 22.429688 C 147.300781 22.230469 144.839844 22.285156 142.46875 21.847656 C 136.074219 20.933594 129.605469 20.363281 123.074219 20.132812 C 116.8125 19.96875 110.519531 20.242188 104.214844 20.890625 C 97.945312 21.660156 91.652344 22.769531 85.46875 24.417969 C 83.84375 24.8125 82.296875 25.425781 80.726562 25.996094 C 79.484375 26.480469 78.496094 27.207031 79.066406 29.039062 C 79.671875 30.949219 80.890625 31.597656 82.40625 31.355469 C 83.449219 31.179688 84.449219 30.765625 85.460938 30.433594 C 85.699219 30.359375 85.941406 30.28125 86.195312 30.191406 C 85.753906 30.632812 85.371094 31.226562 85.019531 32.027344 C 90.9375 30.863281 96.289062 30.136719 101.648438 29.851562 C 102.382812 32.542969 101.195312 32.808594 99.902344 33.191406 C 95.289062 34.707031 90.402344 35.253906 85.789062 36.9375 C 80.175781 38.878906 74.609375 41.019531 69.105469 43.460938 C 66.328125 44.632812 63.648438 46.007812 60.914062 47.359375 C 58.265625 48.820312 55.554688 50.246094 52.996094 51.914062 C 45.394531 56.683594 37.882812 61.984375 31.394531 68.554688 C 24.476562 75.605469 18.402344 83.675781 13.734375 92.550781 C 7.078125 105.441406 2.851562 119.640625 1.25 134.074219 C 1.074219 135.3125 1.742188 136.621094 2.007812 137.894531 C 2.183594 138.792969 2.378906 139.726562 2.292969 140.617188 C 1.25 151.117188 1.488281 161.769531 3.105469 172.289062 C 3.511719 175.375 4.222656 178.40625 4.851562 181.460938 C 5.640625 184.46875 6.355469 187.511719 7.355469 190.464844 C 8.234375 193.464844 9.363281 196.363281 10.441406 199.304688 C 11.648438 202.183594 12.78125 205.105469 14.164062 207.90625 C 15.535156 210.9375 17.535156 213.636719 19.304688 216.4375 C 20.238281 217.800781 21.125 219.195312 21.894531 220.667969 C 22.664062 222.148438 23.410156 223.632812 23.925781 225.300781 C 24.125 225.882812 24.828125 226.257812 25.320312 226.707031 C 26.363281 227.597656 27.628906 228.265625 28.460938 229.296875 C 35.148438 237.445312 42.925781 244.617188 51.195312 251.074219 C 59.246094 257.402344 67.964844 262.914062 77.253906 267.394531 C 82.910156 270.074219 88.753906 272.390625 94.773438 274.191406 C 100.769531 276.046875 106.894531 277.554688 113.113281 278.671875 C 127.519531 281.398438 142.476562 282.089844 157.480469 280.242188 C 163.433594 279.496094 169.363281 278.34375 175.25 276.851562 C 181.101562 275.28125 186.976562 273.5 192.675781 271.226562 C 205.769531 266.199219 218.429688 259.289062 229.882812 250.339844 C 243.050781 239.941406 254.570312 226.925781 263.632812 211.992188 L 266.214844 207.53125 C 267.035156 206.015625 267.804688 204.480469 268.605469 202.941406 C 269.320312 201.558594 269.695312 200.152344 267.902344 199.339844 " fill-opacity="1" fill-rule="nonzero"/></g></g></g></g><g mask="url(#9e842cd5aa)"><g transform="matrix(1, 0, 0, 1, 0, -0.000000000000011602)"><g clip-path="url(#1993ae45a3)"><g clip-path="url(#9c308081ad)"><path fill="#497497" d="M 62.101562 255.851562 C 53.238281 250.085938 45.023438 243.277344 37.882812 235.503906 C 38.105469 235.523438 38.289062 235.558594 38.53125 235.570312 C 35.183594 230.5625 32.4375 225.90625 30.109375 221.074219 C 30.460938 220.785156 30.769531 220.601562 31.054688 220.457031 C 31.195312 220.675781 31.328125 220.898438 31.460938 221.117188 C 32.183594 222.324219 33.128906 223.367188 33.984375 224.464844 L 36.621094 227.738281 C 37.609375 228.992188 38.488281 230.339844 39.445312 231.636719 C 40.421875 232.910156 41.433594 234.175781 42.550781 235.316406 C 45.726562 238.445312 49.328125 240.984375 52.90625 243.5625 C 53.675781 244.320312 54.445312 245.078125 55.238281 245.816406 C 57.398438 247.921875 59.707031 249.867188 62 251.867188 C 64.375 253.746094 66.734375 255.699219 69.261719 257.402344 C 76.519531 262.507812 84.238281 267.339844 92.695312 270.777344 C 92.378906 270.679688 92.058594 270.589844 91.742188 270.492188 C 81.273438 266.824219 71.269531 261.957031 62.101562 255.851562 Z M 18.050781 203.632812 C 17.152344 201.261719 16.207031 198.890625 15.578125 196.441406 C 15.019531 193.96875 14.613281 191.476562 15.042969 188.828125 C 15.117188 188.335938 14.941406 187.820312 14.800781 187.347656 L 14.109375 184.996094 L 13.503906 182.625 C 13.121094 181.042969 12.691406 179.472656 12.484375 177.847656 C 11.285156 170.367188 10.902344 162.824219 11.273438 155.378906 C 11.308594 154.785156 11.957031 154.203125 12.382812 153.621094 C 12.320312 157.859375 12.59375 162.078125 12.824219 166.328125 C 13.21875 171.742188 13.492188 177.285156 14.757812 182.667969 C 15.207031 185.074219 16.042969 187.367188 16.777344 189.707031 C 17.589844 192.015625 18.46875 194.296875 19.304688 196.605469 C 19.535156 197.230469 19.785156 197.855469 20.027344 198.472656 C 20.082031 198.757812 20.148438 199.03125 20.203125 199.304688 C 20.554688 201.328125 20.949219 203.347656 21.90625 205.09375 C 22.367188 205.984375 23.003906 206.773438 23.871094 207.433594 C 24.167969 208.058594 24.464844 208.695312 24.773438 209.320312 C 24.542969 209.367188 24.3125 209.410156 24.046875 209.453125 C 25.902344 215.308594 27.945312 221.027344 31.152344 226.089844 C 32.007812 227.367188 32.65625 228.640625 33.171875 230.011719 C 32.292969 228.925781 31.417969 227.816406 30.570312 226.683594 C 25.308594 219.613281 21.246094 211.726562 18.050781 203.632812 Z M 12.382812 153.378906 C 11.242188 152.226562 11.175781 151.007812 11.40625 149.789062 C 11.648438 148.558594 12.273438 147.328125 12.308594 146.109375 C 12.296875 147.316406 12.230469 148.523438 12.261719 149.742188 C 12.296875 150.953125 12.339844 152.171875 12.382812 153.378906 Z M 11.265625 143.054688 C 11.539062 143.800781 14.140625 144.691406 12.320312 146.054688 C 12.320312 146.054688 12.320312 146.042969 12.320312 146.042969 C 11.054688 144.769531 10.945312 144.648438 11.265625 143.054688 Z M 9.289062 135.984375 C 8.605469 137.410156 8.242188 138.894531 7.902344 140.386719 C 7.5625 141.871094 7.34375 143.386719 7.234375 144.890625 L 6.804688 149.425781 C 6.695312 150.941406 6.542969 152.457031 6.234375 153.972656 C 5.839844 155.816406 5.785156 157.683594 5.683594 159.5625 C 5.574219 161.441406 5.621094 163.316406 5.621094 165.207031 C 4.816406 162.132812 4.398438 159 4.179688 155.871094 C 4.136719 152.730469 4.246094 149.578125 5.148438 146.503906 C 5.675781 144.527344 5.355469 142.398438 5.609375 140.355469 C 5.90625 136.984375 6.476562 133.65625 7.023438 130.328125 L 8.066406 125.386719 C 8.398438 123.738281 8.902344 122.125 9.308594 120.5 C 9.375 120.246094 9.507812 119.984375 9.464844 119.730469 C 9.15625 118.039062 9.375 116.433594 9.714844 114.855469 C 10.066406 113.273438 10.617188 111.746094 11.273438 110.253906 C 11.921875 108.757812 12.503906 107.253906 13.074219 105.75 C 13.636719 104.246094 14.054688 102.6875 14.152344 101.003906 C 15.207031 100.105469 15.449219 98.777344 15.832031 97.492188 C 16.21875 96.226562 16.734375 95.019531 18.480469 94.601562 C 21.300781 89.289062 24.628906 84.257812 28.164062 79.4375 L 27.089844 78.613281 C 25.386719 80.632812 23.828125 82.773438 22.246094 84.882812 C 20.761719 87.058594 19.203125 89.179688 17.886719 91.40625 C 18.359375 88.597656 22.683594 80.675781 30.261719 72.574219 C 37.71875 64.390625 48.480469 56.332031 59.046875 51.707031 C 54.117188 54.769531 49.480469 58.328125 44.804688 61.867188 C 42.882812 63.195312 41.332031 64.886719 39.804688 66.578125 C 38.300781 68.300781 37.027344 70.199219 35.710938 72.078125 C 32.460938 77.097656 28.96875 81.929688 26.179688 87.179688 C 25.125 89.375 23.96875 91.515625 23.191406 93.835938 C 22.785156 94.976562 22.398438 96.140625 22.058594 97.304688 C 21.742188 98.480469 21.5 99.6875 21.300781 100.90625 C 22.507812 98.085938 23.949219 95.382812 25.355469 92.660156 L 26.296875 93.164062 C 25.828125 94.1875 25.421875 95.273438 25.023438 96.347656 C 22.871094 99.347656 21.09375 102.621094 19.796875 106.132812 C 19.6875 106.417969 19.589844 106.726562 19.46875 107.023438 C 19.191406 107.472656 18.941406 107.925781 18.710938 108.394531 C 18.160156 109.59375 17.777344 110.855469 17.390625 112.121094 C 16.589844 114.613281 16.195312 117.203125 14.941406 119.574219 C 12.492188 124.804688 11.660156 130.644531 9.289062 135.984375 Z M 4.894531 169.226562 L 5.53125 169.128906 C 6.035156 171.9375 6.496094 174.761719 7.191406 177.539062 L 6.5625 177.691406 C 5.859375 174.894531 5.398438 172.058594 4.894531 169.226562 Z M 8.132812 189.796875 C 7.246094 187.335938 6.585938 184.808594 5.871094 182.304688 L 6.300781 182.21875 C 7.015625 184.710938 7.660156 187.226562 8.550781 189.664062 Z M 92.082031 37.78125 C 85.921875 41.933594 79.046875 43.425781 72.390625 46.261719 L 71.875 45.238281 C 78.398438 42.128906 85.171875 39.625 92.082031 37.78125 Z M 96.617188 28.886719 C 94.660156 29.269531 92.816406 29.324219 90.875 29.140625 C 90.675781 29.128906 90.46875 29.105469 90.269531 29.09375 C 90.445312 29.0625 90.621094 29.019531 90.808594 28.996094 C 94.597656 28.558594 98.375 28.347656 102.128906 28.316406 C 100.273438 28.402344 98.441406 28.578125 96.617188 28.886719 Z M 116.988281 29.203125 C 115.945312 29.730469 114.945312 30.578125 114.035156 31.839844 C 114.320312 30.511719 114.472656 29.839844 114.691406 28.789062 C 114.835938 28.796875 114.980469 28.808594 115.109375 28.820312 C 115.800781 28.886719 116.417969 28.984375 116.988281 29.203125 Z M 138.917969 30.90625 C 137.449219 30.730469 135.976562 30.578125 134.492188 30.457031 C 133.011719 30.359375 131.519531 30.171875 130.023438 29.917969 C 128.828125 29.730469 127.628906 29.535156 126.445312 29.304688 C 131.363281 29.433594 136.140625 29.796875 140.90625 30.457031 C 140.5 30.6875 139.796875 30.828125 138.917969 30.90625 Z M 171.230469 34.53125 L 175.894531 36.320312 L 175.402344 37.417969 L 171.0625 34.894531 Z M 112.707031 274.367188 C 112.726562 274.378906 112.761719 274.378906 112.792969 274.390625 C 108.652344 273.851562 103.128906 272.613281 97.109375 270.382812 C 97.101562 270.371094 97.089844 270.371094 97.078125 270.359375 C 102.164062 272.085938 107.378906 273.457031 112.707031 274.367188 Z M 218.8125 231.847656 L 219.101562 232.140625 L 215.628906 235.753906 L 214.816406 234.878906 Z M 234.683594 204.65625 Z M 106.609375 31.246094 C 105.699219 31.402344 104.789062 31.578125 103.898438 31.808594 L 103.667969 30.960938 C 104.589844 30.65625 105.511719 30.390625 106.457031 30.160156 Z M 28.617188 216.472656 C 28.738281 216.679688 28.867188 216.886719 28.988281 217.097656 C 28.835938 216.898438 28.671875 216.722656 28.527344 216.527344 Z M 267.902344 199.339844 C 266.398438 198.65625 265.113281 199.164062 264.324219 200.589844 C 263.445312 202.195312 262.546875 203.777344 261.730469 205.390625 C 259.171875 210.1875 256.78125 215.121094 253.429688 219.371094 C 248.367188 225.859375 243.269531 232.199219 237.625 237.984375 C 231.980469 243.761719 225.832031 249 219.011719 253.128906 C 216.222656 254.886719 213.335938 256.488281 210.535156 258.179688 C 207.65625 259.75 204.855469 261.410156 201.925781 262.871094 C 199.070312 264.417969 196.09375 265.738281 193.160156 267.109375 C 190.164062 268.351562 187.195312 269.625 184.121094 270.613281 C 175.371094 273.578125 166.40625 275.675781 157.425781 276.925781 L 149.484375 278.136719 C 146.816406 278.398438 144.160156 278.695312 141.5 278.53125 C 139.09375 278.378906 136.710938 278.3125 134.339844 278.203125 C 144.71875 277.914062 155.085938 276.289062 165.046875 273.359375 C 165.640625 273.195312 166.167969 272.851562 166.671875 272.445312 C 168.253906 272.03125 169.8125 271.578125 171.351562 271.0625 C 184.277344 266.902344 196.257812 260.222656 207.339844 252.425781 C 212.390625 248.855469 217.234375 244.96875 221.910156 240.863281 C 226.558594 236.710938 230.925781 232.21875 235.058594 227.476562 C 236.988281 225.113281 239.371094 223.113281 238.121094 219.425781 C 238.8125 218.632812 239.546875 217.867188 240.394531 217.152344 C 240.867188 216.757812 240.933594 215.953125 241.152344 215.328125 C 241.570312 214.023438 241.710938 212.59375 242.328125 211.429688 C 244.128906 208.015625 245.753906 204.523438 247.226562 200.976562 C 248.53125 198.449219 249.804688 195.902344 251.003906 193.300781 C 253.574219 187.597656 255.746094 181.691406 257.59375 175.617188 C 259.304688 169.535156 260.722656 163.308594 261.589844 156.96875 C 261.851562 155.324219 261.886719 153.652344 261.964844 151.984375 C 262.007812 150.65625 261.722656 149.457031 259.800781 149.273438 C 259.371094 149.238281 259.007812 149.25 258.65625 149.304688 C 258.820312 143.847656 258.667969 138.367188 258.097656 132.917969 C 257.480469 126.671875 256.503906 120.433594 255.121094 114.273438 C 252.066406 99.929688 246.917969 85.871094 239.417969 72.738281 C 236.417969 67.542969 233.070312 62.523438 229.410156 57.671875 C 225.699219 52.882812 221.789062 48.160156 217.484375 43.777344 C 207.789062 33.640625 196.519531 24.648438 183.835938 17.542969 C 169.152344 9.425781 152.703125 3.824219 135.425781 1.246094 L 130.308594 0.597656 C 128.597656 0.421875 126.871094 0.3125 125.160156 0.167969 C 123.601562 0.0351562 122.160156 0.246094 122.105469 2.199219 C 122.050781 3.859375 123.019531 4.847656 124.644531 5.023438 C 126.457031 5.207031 128.265625 5.429688 130.066406 5.558594 C 135.492188 6.066406 140.960938 6.363281 146.167969 7.8125 C 154.117188 9.964844 161.925781 12.214844 169.449219 15.179688 C 176.949219 18.15625 184.164062 21.792969 190.613281 26.480469 C 193.3125 28.382812 195.90625 30.433594 198.550781 32.355469 C 201.121094 34.398438 203.726562 36.34375 206.207031 38.472656 C 208.742188 40.515625 211.117188 42.757812 213.511719 44.921875 C 215.804688 47.214844 218.132812 49.445312 220.21875 51.90625 C 226.359375 58.824219 231.75 66.28125 236.386719 74.078125 L 240.558594 80.941406 C 241.84375 83.292969 243.140625 85.628906 244.019531 88.144531 C 245.007812 90.980469 246.105469 93.722656 247.070312 96.515625 C 248.148438 99.269531 249.046875 102.082031 250.015625 104.859375 C 251.78125 110.460938 253.398438 116.148438 254.023438 121.992188 C 254.671875 127.042969 255.417969 132.074219 255.847656 137.148438 C 256.308594 144.824219 256.132812 152.523438 255.296875 160.132812 C 253.046875 167.851562 249.925781 175.144531 246.355469 182.007812 C 246.90625 179.691406 247.5 177.386719 248.246094 175.113281 C 249.617188 171.039062 250.167969 166.734375 250.816406 162.472656 C 251.167969 160.339844 251.410156 158.199219 251.914062 156.082031 C 252.355469 153.960938 252.878906 151.832031 253.726562 149.6875 C 253.824219 149.4375 253.769531 149.160156 253.78125 148.898438 C 254.351562 138.09375 253.804688 127.042969 251.320312 116.316406 C 249.9375 109.910156 247.828125 103.683594 245.359375 97.613281 C 244.171875 94.546875 242.746094 91.582031 241.371094 88.585938 C 239.878906 85.652344 238.449219 82.664062 236.8125 79.789062 C 235.289062 76.867188 233.476562 74.109375 231.664062 71.34375 C 229.730469 68.664062 227.777344 65.984375 225.578125 63.5 C 216.75 53.191406 205.953125 44.734375 194.476562 37.527344 C 189.230469 34.257812 183.78125 31.292969 178.179688 28.566406 C 172.558594 25.886719 166.726562 23.59375 160.753906 21.617188 C 157.808594 20.738281 155.03125 19.300781 152.085938 21.945312 C 151.503906 22.460938 150.496094 22.496094 149.714844 22.429688 C 147.300781 22.230469 144.839844 22.285156 142.46875 21.847656 C 136.074219 20.933594 129.605469 20.363281 123.074219 20.132812 C 116.8125 19.96875 110.519531 20.242188 104.214844 20.890625 C 97.945312 21.660156 91.652344 22.769531 85.46875 24.417969 C 83.84375 24.8125 82.296875 25.425781 80.726562 25.996094 C 79.484375 26.480469 78.496094 27.207031 79.066406 29.039062 C 79.671875 30.949219 80.890625 31.597656 82.40625 31.355469 C 83.449219 31.179688 84.449219 30.765625 85.460938 30.433594 C 85.699219 30.359375 85.941406 30.28125 86.195312 30.191406 C 85.753906 30.632812 85.371094 31.226562 85.019531 32.027344 C 90.9375 30.863281 96.289062 30.136719 101.648438 29.851562 C 102.382812 32.542969 101.195312 32.808594 99.902344 33.191406 C 95.289062 34.707031 90.402344 35.253906 85.789062 36.9375 C 80.175781 38.878906 74.609375 41.019531 69.105469 43.460938 C 66.328125 44.632812 63.648438 46.007812 60.914062 47.359375 C 58.265625 48.820312 55.554688 50.246094 52.996094 51.914062 C 45.394531 56.683594 37.882812 61.984375 31.394531 68.554688 C 24.476562 75.605469 18.402344 83.675781 13.734375 92.550781 C 7.078125 105.441406 2.851562 119.640625 1.25 134.074219 C 1.074219 135.3125 1.742188 136.621094 2.007812 137.894531 C 2.183594 138.792969 2.378906 139.726562 2.292969 140.617188 C 1.25 151.117188 1.488281 161.769531 3.105469 172.289062 C 3.511719 175.375 4.222656 178.40625 4.851562 181.460938 C 5.640625 184.46875 6.355469 187.511719 7.355469 190.464844 C 8.234375 193.464844 9.363281 196.363281 10.441406 199.304688 C 11.648438 202.183594 12.78125 205.105469 14.164062 207.90625 C 15.535156 210.9375 17.535156 213.636719 19.304688 216.4375 C 20.238281 217.800781 21.125 219.195312 21.894531 220.667969 C 22.664062 222.148438 23.410156 223.632812 23.925781 225.300781 C 24.125 225.882812 24.828125 226.257812 25.320312 226.707031 C 26.363281 227.597656 27.628906 228.265625 28.460938 229.296875 C 35.148438 237.445312 42.925781 244.617188 51.195312 251.074219 C 59.246094 257.402344 67.964844 262.914062 77.253906 267.394531 C 82.910156 270.074219 88.753906 272.390625 94.773438 274.191406 C 100.769531 276.046875 106.894531 277.554688 113.113281 278.671875 C 127.519531 281.398438 142.476562 282.089844 157.480469 280.242188 C 163.433594 279.496094 169.363281 278.34375 175.25 276.851562 C 181.101562 275.28125 186.976562 273.5 192.675781 271.226562 C 205.769531 266.199219 218.429688 259.289062 229.882812 250.339844 C 243.050781 239.941406 254.570312 226.925781 263.632812 211.992188 L 266.214844 207.53125 C 267.035156 206.015625 267.804688 204.480469 268.605469 202.941406 C 269.320312 201.558594 269.695312 200.152344 267.902344 199.339844 " fill-opacity="1" fill-rule="nonzero"/></g></g></g></g></g></svg>