<svg xmlns="http://www.w3.org/2000/svg" xmlns:xlink="http://www.w3.org/1999/xlink" width="343" zoomAndPan="magnify" viewBox="0 0 257.25 143.249994" height="191" preserveAspectRatio="xMidYMid meet" version="1.0"><defs><g/></defs><path stroke-linecap="butt" transform="matrix(0.746094, 0, 0, 0.746094, 44.543705, 107.848701)" fill="none" stroke-linejoin="miter" d="M -0.000986692 4.9986 L 84.433575 4.9986 " stroke="#e4e2dd" stroke-width="10" stroke-opacity="1" stroke-miterlimit="4"/><path stroke-linecap="butt" transform="matrix(0, 0.746094, -0.746094, 0, 52.000815, 51.549773)" fill="none" stroke-linejoin="miter" d="M 0.0013518 5.001092 L 82.462092 5.001092 " stroke="#e4e2dd" stroke-width="10" stroke-opacity="1" stroke-miterlimit="4"/><path stroke-linecap="butt" transform="matrix(-0.746094, 0, 0, -0.746094, 236.452202, 27.125044)" fill="none" stroke-linejoin="miter" d="M -0.00123675 5.000059 L 84.433325 5.000059 " stroke="#e4e2dd" stroke-width="10" stroke-opacity="1" stroke-miterlimit="4"/><path stroke-linecap="butt" transform="matrix(0, -0.746094, 0.746094, 0, 228.995814, 83.423969)" fill="none" stroke-linejoin="miter" d="M -0.00242837 5.000376 L 82.463547 5.000376 " stroke="#e4e2dd" stroke-width="10" stroke-opacity="1" stroke-miterlimit="4"/><g fill="#ff4343" fill-opacity="1"><g transform="translate(53.590252, 65.815544)"><g><path d="M 3.203125 -43.953125 L 15.9375 -43.953125 C 22.039062 -43.953125 27.257812 -41.863281 31.59375 -37.6875 C 35.925781 -33.519531 38.09375 -28.289062 38.09375 -22 C 38.09375 -15.675781 35.9375 -10.425781 31.625 -6.25 C 27.3125 -2.082031 22.082031 0 15.9375 0 L 3.203125 0 Z M 13.21875 -8.953125 L 14.765625 -8.953125 C 18.421875 -8.953125 21.410156 -10.1875 23.734375 -12.65625 C 26.066406 -15.125 27.25 -18.222656 27.28125 -21.953125 C 27.28125 -25.679688 26.113281 -28.785156 23.78125 -31.265625 C 21.457031 -33.753906 18.453125 -35 14.765625 -35 L 13.21875 -35 Z M 13.21875 -8.953125 "/></g></g></g><g fill="#ff4343" fill-opacity="1"><g transform="translate(88.378146, 65.815544)"><g><path d="M 30.84375 -12.359375 L 11.03125 -12.359375 C 11.03125 -10.441406 11.648438 -9.019531 12.890625 -8.09375 C 14.140625 -7.175781 15.488281 -6.71875 16.9375 -6.71875 C 18.46875 -6.71875 19.675781 -6.921875 20.5625 -7.328125 C 21.457031 -7.734375 22.472656 -8.539062 23.609375 -9.75 L 30.421875 -6.34375 C 27.578125 -1.582031 22.851562 0.796875 16.25 0.796875 C 12.125 0.796875 8.585938 -0.613281 5.640625 -3.4375 C 2.691406 -6.257812 1.21875 -9.660156 1.21875 -13.640625 C 1.21875 -17.617188 2.691406 -21.023438 5.640625 -23.859375 C 8.585938 -26.703125 12.125 -28.125 16.25 -28.125 C 20.582031 -28.125 24.109375 -26.875 26.828125 -24.375 C 29.546875 -21.875 30.90625 -18.296875 30.90625 -13.640625 C 30.90625 -13.003906 30.882812 -12.578125 30.84375 -12.359375 Z M 11.296875 -17.578125 L 21.6875 -17.578125 C 21.46875 -19.003906 20.90625 -20.097656 20 -20.859375 C 19.101562 -21.617188 17.941406 -22 16.515625 -22 C 14.953125 -22 13.707031 -21.585938 12.78125 -20.765625 C 11.863281 -19.953125 11.367188 -18.890625 11.296875 -17.578125 Z M 11.296875 -17.578125 "/></g></g></g><g fill="#ff4343" fill-opacity="1"><g transform="translate(115.97381, 65.815544)"><g><path d="M 10.125 -27.328125 L 16.78125 -12.46875 L 23.4375 -27.328125 L 34.640625 -27.328125 L 19.984375 0 L 13.59375 0 L -1.0625 -27.328125 Z M 10.125 -27.328125 "/></g></g></g><g fill="#ff4343" fill-opacity="1"><g transform="translate(145.007915, 65.815544)"><g><path d="M 4.09375 -42.5625 C 5.195312 -43.664062 6.515625 -44.21875 8.046875 -44.21875 C 9.578125 -44.21875 10.890625 -43.664062 11.984375 -42.5625 C 13.085938 -41.46875 13.640625 -40.15625 13.640625 -38.625 C 13.640625 -37.101562 13.085938 -35.789062 11.984375 -34.6875 C 10.890625 -33.582031 9.578125 -33.03125 8.046875 -33.03125 C 6.515625 -33.03125 5.195312 -33.582031 4.09375 -34.6875 C 3 -35.789062 2.453125 -37.101562 2.453125 -38.625 C 2.453125 -40.15625 3 -41.46875 4.09375 -42.5625 Z M 3.203125 -27.328125 L 3.203125 0 L 12.625 0 L 12.625 -27.328125 Z M 3.203125 -27.328125 "/></g></g></g><g fill="#ff4343" fill-opacity="1"><g transform="translate(156.567552, 65.815544)"><g><path d="M 3.203125 0 L 3.203125 -45.828125 L 12.625 -45.828125 L 12.625 0 Z M 3.203125 0 "/></g></g></g><g fill="#ff4343" fill-opacity="1"><g transform="translate(167.870822, 65.815544)"><g/></g></g><g fill="#ff4343" fill-opacity="1"><g transform="translate(177.885457, 65.815544)"><g/></g></g><g fill="#ff4343" fill-opacity="1"><g transform="translate(187.900092, 65.815544)"><g/></g></g><g fill="#e4e2dd" fill-opacity="1"><g transform="translate(126.469914, 113.704462)"><g><path d="M 9.3125 -4.21875 C 9.3125 -3.175781 9.441406 -2.457031 9.703125 -2.0625 C 9.960938 -1.675781 10.441406 -1.363281 11.140625 -1.125 L 11.140625 0 L 2.890625 0 L 2.890625 -1.125 C 3.597656 -1.382812 4.082031 -1.710938 4.34375 -2.109375 C 4.601562 -2.503906 4.734375 -3.207031 4.734375 -4.21875 L 4.734375 -34 C 4.734375 -35.007812 4.597656 -35.722656 4.328125 -36.140625 C 4.054688 -36.554688 3.578125 -36.882812 2.890625 -37.125 L 2.890625 -38.25 L 28.078125 -38.25 L 29.9375 -33.40625 L 28.984375 -32.9375 C 28.335938 -33.5625 27.566406 -34 26.671875 -34.25 C 25.785156 -34.5 24.367188 -34.625 22.421875 -34.625 L 9.3125 -34.625 L 9.3125 -22.421875 L 22.21875 -22.421875 C 24.019531 -22.421875 25.210938 -22.585938 25.796875 -22.921875 C 26.378906 -23.265625 26.765625 -23.878906 26.953125 -24.765625 L 28.078125 -24.765625 L 28.078125 -17.21875 L 26.953125 -17.21875 C 26.765625 -17.9375 26.382812 -18.429688 25.8125 -18.703125 C 25.25 -18.984375 24.050781 -19.125 22.21875 -19.125 L 9.3125 -19.125 Z M 9.3125 -4.21875 "/></g></g></g><g fill="#e4e2dd" fill-opacity="1"><g transform="translate(152.792315, 113.704462)"><g><path d="M 3.515625 -15.609375 C 3.515625 -16.617188 3.375 -17.285156 3.09375 -17.609375 C 2.8125 -17.941406 2.289062 -18.109375 1.53125 -18.109375 L 1.53125 -19.125 L 6.609375 -22.6875 L 7.578125 -22.375 L 7.578125 -8.53125 C 7.578125 -6.414062 8.117188 -4.796875 9.203125 -3.671875 C 10.296875 -2.546875 11.867188 -1.984375 13.921875 -1.984375 C 14.804688 -1.984375 15.707031 -2.101562 16.625 -2.34375 C 17.539062 -2.582031 18.554688 -2.972656 19.671875 -3.515625 L 19.671875 -18.109375 C 19.671875 -19.234375 19.492188 -20 19.140625 -20.40625 C 18.796875 -20.8125 18.15625 -21.078125 17.21875 -21.203125 L 17.21875 -22.21875 L 23.75 -22.21875 L 23.75 -5.90625 C 23.75 -4.894531 23.882812 -4.222656 24.15625 -3.890625 C 24.4375 -3.566406 24.960938 -3.40625 25.734375 -3.40625 L 25.734375 -2.390625 L 20.6875 0.65625 L 19.671875 0.265625 L 19.671875 -1.921875 C 18.367188 -1.054688 17.125 -0.410156 15.9375 0.015625 C 14.757812 0.441406 13.601562 0.65625 12.46875 0.65625 C 11.007812 0.65625 9.554688 0.289062 8.109375 -0.4375 C 6.671875 -1.164062 5.53125 -2.117188 4.6875 -3.296875 C 4.269531 -3.910156 3.96875 -4.582031 3.78125 -5.3125 C 3.601562 -6.050781 3.515625 -7.109375 3.515625 -8.484375 Z M 3.515625 -15.609375 "/></g></g></g><g fill="#e4e2dd" fill-opacity="1"><g transform="translate(175.758967, 113.704462)"><g><path d="M 19.921875 -14.59375 C 19.921875 -16.394531 19.375 -17.773438 18.28125 -18.734375 C 17.195312 -19.703125 15.628906 -20.1875 13.578125 -20.1875 C 12.660156 -20.1875 11.738281 -20.066406 10.8125 -19.828125 C 9.882812 -19.597656 8.890625 -19.222656 7.828125 -18.703125 L 7.828125 -4.109375 C 7.828125 -3.015625 7.988281 -2.257812 8.3125 -1.84375 C 8.632812 -1.425781 9.21875 -1.148438 10.0625 -1.015625 L 10.0625 0 L 2.03125 0 L 2.03125 -1.015625 C 2.6875 -1.273438 3.140625 -1.609375 3.390625 -2.015625 C 3.640625 -2.421875 3.765625 -3.117188 3.765625 -4.109375 L 3.765625 -15.609375 C 3.765625 -16.617188 3.625 -17.285156 3.34375 -17.609375 C 3.070312 -17.941406 2.566406 -18.109375 1.828125 -18.109375 L 1.828125 -19.125 L 6.8125 -22.6875 L 7.828125 -22.375 L 7.828125 -20.296875 C 9.097656 -21.140625 10.328125 -21.769531 11.515625 -22.1875 C 12.703125 -22.601562 13.875 -22.8125 15.03125 -22.8125 C 17.476562 -22.8125 19.582031 -21.988281 21.34375 -20.34375 C 23.101562 -18.695312 23.984375 -16.742188 23.984375 -14.484375 L 23.984375 -4.109375 C 23.984375 -3.109375 24.113281 -2.398438 24.375 -1.984375 C 24.632812 -1.578125 25.117188 -1.253906 25.828125 -1.015625 L 25.828125 0 L 18.0625 0 L 18.0625 -1.015625 C 18.769531 -1.253906 19.253906 -1.578125 19.515625 -1.984375 C 19.785156 -2.398438 19.921875 -3.109375 19.921875 -4.109375 Z M 19.921875 -14.59375 "/></g></g></g><g fill="#e4e2dd" fill-opacity="1"><g transform="translate(198.72562, 113.704462)"><g><path d="M 19.71875 -5.125 L 19.71875 -15.921875 C 18.925781 -17.296875 18.007812 -18.289062 16.96875 -18.90625 C 15.925781 -19.519531 14.675781 -19.828125 13.21875 -19.828125 C 11 -19.828125 9.191406 -19.050781 7.796875 -17.5 C 6.398438 -15.957031 5.703125 -13.957031 5.703125 -11.5 C 5.703125 -8.914062 6.457031 -6.8125 7.96875 -5.1875 C 9.488281 -3.5625 11.472656 -2.75 13.921875 -2.75 C 15.128906 -2.75 16.203125 -2.941406 17.140625 -3.328125 C 18.078125 -3.710938 18.9375 -4.3125 19.71875 -5.125 Z M 19.765625 -31.171875 C 19.765625 -32.171875 19.617188 -32.835938 19.328125 -33.171875 C 19.046875 -33.503906 18.535156 -33.671875 17.796875 -33.671875 L 17.796875 -34.625 L 22.8125 -38.25 L 23.8125 -38.25 L 23.8125 -5.859375 C 23.8125 -5.234375 23.9375 -4.800781 24.1875 -4.5625 C 24.4375 -4.332031 24.878906 -4.164062 25.515625 -4.0625 L 25.515625 -3.046875 L 20.734375 0.515625 L 19.765625 0.515625 L 19.765625 -1.828125 C 18.628906 -1.023438 17.476562 -0.410156 16.3125 0.015625 C 15.144531 0.441406 14.023438 0.65625 12.953125 0.65625 C 9.773438 0.65625 7.132812 -0.429688 5.03125 -2.609375 C 2.925781 -4.785156 1.875 -7.503906 1.875 -10.765625 C 1.875 -14.117188 2.9375 -16.898438 5.0625 -19.109375 C 7.1875 -21.316406 9.851562 -22.421875 13.0625 -22.421875 C 14.445312 -22.421875 15.679688 -22.234375 16.765625 -21.859375 C 17.847656 -21.492188 18.847656 -20.921875 19.765625 -20.140625 Z M 19.765625 -31.171875 "/></g></g></g></svg>