<svg xmlns="http://www.w3.org/2000/svg" xmlns:xlink="http://www.w3.org/1999/xlink" width="237" zoomAndPan="magnify" viewBox="0 0 177.75 57.749997" height="77" preserveAspectRatio="xMidYMid meet" version="1.0"><defs><g/></defs><g fill="#31356e" fill-opacity="1"><g transform="translate(14.614995, 40.141534)"><g><path d="M 1.8125 -19.25 L 8.28125 -19.25 L 8.28125 0 L 1.8125 0 Z M 1.8125 -19.25 "/></g></g></g><g fill="#31356e" fill-opacity="1"><g transform="translate(24.719581, 40.141534)"><g><path d="M 1.40625 -13.828125 L 7.03125 -13.828125 L 7.03125 -10.96875 C 8.101562 -13.132812 9.816406 -14.21875 12.171875 -14.21875 C 13.960938 -14.21875 15.363281 -13.578125 16.375 -12.296875 C 17.394531 -11.015625 17.90625 -9.25 17.90625 -7 L 17.90625 0 L 12.03125 0 L 12.03125 -7.578125 C 12.03125 -8.378906 11.859375 -8.992188 11.515625 -9.421875 C 11.171875 -9.859375 10.691406 -10.078125 10.078125 -10.078125 C 9.628906 -10.078125 9.1875 -9.929688 8.75 -9.640625 C 8.320312 -9.347656 7.972656 -8.929688 7.703125 -8.390625 C 7.429688 -7.847656 7.296875 -7.234375 7.296875 -6.546875 L 7.296875 0 L 1.40625 0 Z M 1.40625 -13.828125 "/></g></g></g><g fill="#31356e" fill-opacity="1"><g transform="translate(43.949082, 40.141534)"><g><path d="M 6.234375 0.21875 C 4.273438 0.21875 2.5625 -0.0664062 1.09375 -0.640625 L 1.734375 -3.96875 C 3.078125 -3.488281 4.382812 -3.25 5.65625 -3.25 C 6.582031 -3.25 7.046875 -3.507812 7.046875 -4.03125 C 7.046875 -4.289062 6.910156 -4.503906 6.640625 -4.671875 C 6.367188 -4.835938 5.863281 -4.988281 5.125 -5.125 C 3.570312 -5.414062 2.453125 -5.914062 1.765625 -6.625 C 1.085938 -7.34375 0.75 -8.351562 0.75 -9.65625 C 0.832031 -11.125 1.421875 -12.25 2.515625 -13.03125 C 3.617188 -13.820312 5.125 -14.21875 7.03125 -14.21875 C 8 -14.21875 8.832031 -14.15625 9.53125 -14.03125 C 10.226562 -13.914062 10.867188 -13.71875 11.453125 -13.4375 L 10.859375 -10.109375 C 10.316406 -10.304688 9.722656 -10.460938 9.078125 -10.578125 C 8.429688 -10.691406 7.894531 -10.75 7.46875 -10.75 C 6.832031 -10.75 6.394531 -10.679688 6.15625 -10.546875 C 5.914062 -10.421875 5.796875 -10.242188 5.796875 -10.015625 C 5.796875 -9.609375 6.257812 -9.320312 7.1875 -9.15625 C 8.882812 -8.851562 10.148438 -8.328125 10.984375 -7.578125 C 11.828125 -6.835938 12.25 -5.820312 12.25 -4.53125 C 12.25 -3.0625 11.734375 -1.898438 10.703125 -1.046875 C 9.671875 -0.203125 8.179688 0.21875 6.234375 0.21875 Z M 6.234375 0.21875 "/></g></g><g transform="translate(56.880712, 40.141534)"><g><path d="M 7.53125 0.21875 C 5.882812 0.21875 4.601562 -0.25 3.6875 -1.1875 C 2.78125 -2.132812 2.328125 -3.4375 2.328125 -5.09375 L 2.328125 -10.546875 L 0.53125 -10.546875 L 0.53125 -14.015625 L 2.75 -14.015625 L 5.34375 -19.3125 L 8.171875 -19.3125 L 8.171875 -14.015625 L 11.421875 -14.015625 L 11.421875 -10.546875 L 8.171875 -10.546875 L 8.171875 -5.796875 C 8.171875 -5.328125 8.316406 -4.960938 8.609375 -4.703125 C 8.910156 -4.441406 9.332031 -4.3125 9.875 -4.3125 C 10.382812 -4.3125 10.84375 -4.421875 11.25 -4.640625 L 11.46875 -0.734375 C 11.007812 -0.453125 10.410156 -0.222656 9.671875 -0.046875 C 8.929688 0.128906 8.21875 0.21875 7.53125 0.21875 Z M 7.53125 0.21875 "/></g></g><g transform="translate(69.056598, 40.141534)"><g><path d="M 7.578125 0.21875 C 6.367188 0.21875 5.238281 -0.0976562 4.1875 -0.734375 C 3.132812 -1.378906 2.289062 -2.253906 1.65625 -3.359375 C 1.019531 -4.472656 0.703125 -5.710938 0.703125 -7.078125 C 0.703125 -8.421875 1.019531 -9.640625 1.65625 -10.734375 C 2.289062 -11.828125 3.140625 -12.679688 4.203125 -13.296875 C 5.265625 -13.910156 6.390625 -14.21875 7.578125 -14.21875 C 8.546875 -14.21875 9.445312 -13.945312 10.28125 -13.40625 C 11.113281 -12.863281 11.742188 -12.050781 12.171875 -10.96875 L 12.171875 -14.21875 L 18.046875 -14.21875 L 18.046875 0 L 12.171875 0 L 12.171875 -2.609375 C 11.242188 -0.722656 9.710938 0.21875 7.578125 0.21875 Z M 9.40625 -4.203125 C 10.144531 -4.203125 10.78125 -4.46875 11.3125 -5 C 11.851562 -5.53125 12.140625 -6.160156 12.171875 -6.890625 L 12.171875 -7.109375 C 12.140625 -7.859375 11.847656 -8.492188 11.296875 -9.015625 C 10.742188 -9.535156 10.113281 -9.796875 9.40625 -9.796875 C 8.625 -9.796875 7.957031 -9.519531 7.40625 -8.96875 C 6.851562 -8.414062 6.578125 -7.757812 6.578125 -7 C 6.578125 -6.21875 6.851562 -5.554688 7.40625 -5.015625 C 7.96875 -4.472656 8.632812 -4.203125 9.40625 -4.203125 Z M 9.40625 -4.203125 "/></g></g></g><g fill="#31356e" fill-opacity="1"><g transform="translate(88.538016, 40.141534)"><g><path d="M 1.8125 -19.25 L 7.640625 -19.25 L 12.453125 -9.90625 L 17.15625 -19.25 L 22.96875 -19.25 L 22.96875 0 L 17.15625 0 L 17.15625 -10.265625 L 13.59375 -3.546875 L 11.21875 -3.546875 L 7.640625 -10.265625 L 7.640625 0 L 1.8125 0 Z M 1.8125 -19.25 "/></g></g></g><g fill="#31356e" fill-opacity="1"><g transform="translate(113.365625, 40.141534)"><g><path d="M 8.765625 0.21875 C 7.191406 0.21875 5.796875 -0.0859375 4.578125 -0.703125 C 3.359375 -1.316406 2.40625 -2.164062 1.71875 -3.25 C 1.039062 -4.34375 0.703125 -5.601562 0.703125 -7.03125 C 0.703125 -8.445312 1.046875 -9.695312 1.734375 -10.78125 C 2.421875 -11.875 3.375 -12.71875 4.59375 -13.3125 C 5.820312 -13.914062 7.21875 -14.21875 8.78125 -14.21875 C 10.375 -14.21875 11.78125 -13.910156 13 -13.296875 C 14.21875 -12.691406 15.160156 -11.847656 15.828125 -10.765625 C 16.503906 -9.691406 16.84375 -8.445312 16.84375 -7.03125 C 16.84375 -5.59375 16.5 -4.328125 15.8125 -3.234375 C 15.132812 -2.140625 14.1875 -1.289062 12.96875 -0.6875 C 11.75 -0.0820312 10.347656 0.21875 8.765625 0.21875 Z M 8.8125 -3.96875 C 9.582031 -3.96875 10.210938 -4.253906 10.703125 -4.828125 C 11.203125 -5.398438 11.453125 -6.132812 11.453125 -7.03125 C 11.453125 -7.925781 11.203125 -8.65625 10.703125 -9.21875 C 10.210938 -9.789062 9.582031 -10.078125 8.8125 -10.078125 C 8.050781 -10.078125 7.421875 -9.789062 6.921875 -9.21875 C 6.429688 -8.65625 6.1875 -7.925781 6.1875 -7.03125 C 6.1875 -6.132812 6.429688 -5.398438 6.921875 -4.828125 C 7.421875 -4.253906 8.050781 -3.96875 8.8125 -3.96875 Z M 8.8125 -3.96875 "/></g></g></g><g fill="#31356e" fill-opacity="1"><g transform="translate(130.915695, 40.141534)"><g><path d="M 0.03125 -14.015625 L 6.515625 -14.015625 L 8.671875 -5.625 L 10.78125 -14.015625 L 15.890625 -14.015625 L 11.453125 0 L 4.640625 0 Z M 0.03125 -14.015625 "/></g></g></g><g fill="#31356e" fill-opacity="1"><g transform="translate(146.870303, 40.141534)"><g><path d="M 8.640625 0.21875 C 7.097656 0.21875 5.722656 -0.09375 4.515625 -0.71875 C 3.316406 -1.34375 2.378906 -2.195312 1.703125 -3.28125 C 1.035156 -4.375 0.703125 -5.613281 0.703125 -7 C 0.703125 -8.414062 1.046875 -9.671875 1.734375 -10.765625 C 2.421875 -11.867188 3.351562 -12.71875 4.53125 -13.3125 C 5.707031 -13.914062 7.015625 -14.21875 8.453125 -14.21875 C 9.828125 -14.21875 11.003906 -13.910156 11.984375 -13.296875 C 12.960938 -12.691406 13.695312 -11.875 14.1875 -10.84375 C 14.675781 -9.8125 14.921875 -8.648438 14.921875 -7.359375 C 14.921875 -7.023438 14.898438 -6.78125 14.859375 -6.625 L 6.46875 -5.546875 C 6.6875 -4.890625 7.046875 -4.414062 7.546875 -4.125 C 8.054688 -3.832031 8.722656 -3.6875 9.546875 -3.6875 C 10.816406 -3.6875 12.1875 -4.015625 13.65625 -4.671875 L 14.359375 -0.921875 C 12.617188 -0.160156 10.710938 0.21875 8.640625 0.21875 Z M 10.578125 -9.0625 C 10.273438 -10.238281 9.566406 -10.828125 8.453125 -10.828125 C 7.773438 -10.828125 7.238281 -10.570312 6.84375 -10.0625 C 6.457031 -9.5625 6.253906 -8.910156 6.234375 -8.109375 Z M 10.578125 -9.0625 "/></g></g></g><g fill="#4a8ad5" fill-opacity="1"><g transform="translate(12.042888, 40.141534)"><g><path d="M 1.8125 -19.25 L 8.28125 -19.25 L 8.28125 0 L 1.8125 0 Z M 1.8125 -19.25 "/></g></g></g><g fill="#4a8ad5" fill-opacity="1"><g transform="translate(22.147474, 40.141534)"><g><path d="M 1.40625 -13.828125 L 7.03125 -13.828125 L 7.03125 -10.96875 C 8.101562 -13.132812 9.816406 -14.21875 12.171875 -14.21875 C 13.960938 -14.21875 15.363281 -13.578125 16.375 -12.296875 C 17.394531 -11.015625 17.90625 -9.25 17.90625 -7 L 17.90625 0 L 12.03125 0 L 12.03125 -7.578125 C 12.03125 -8.378906 11.859375 -8.992188 11.515625 -9.421875 C 11.171875 -9.859375 10.691406 -10.078125 10.078125 -10.078125 C 9.628906 -10.078125 9.1875 -9.929688 8.75 -9.640625 C 8.320312 -9.347656 7.972656 -8.929688 7.703125 -8.390625 C 7.429688 -7.847656 7.296875 -7.234375 7.296875 -6.546875 L 7.296875 0 L 1.40625 0 Z M 1.40625 -13.828125 "/></g></g></g><g fill="#4a8ad5" fill-opacity="1"><g transform="translate(41.376974, 40.141534)"><g><path d="M 6.234375 0.21875 C 4.273438 0.21875 2.5625 -0.0664062 1.09375 -0.640625 L 1.734375 -3.96875 C 3.078125 -3.488281 4.382812 -3.25 5.65625 -3.25 C 6.582031 -3.25 7.046875 -3.507812 7.046875 -4.03125 C 7.046875 -4.289062 6.910156 -4.503906 6.640625 -4.671875 C 6.367188 -4.835938 5.863281 -4.988281 5.125 -5.125 C 3.570312 -5.414062 2.453125 -5.914062 1.765625 -6.625 C 1.085938 -7.34375 0.75 -8.351562 0.75 -9.65625 C 0.832031 -11.125 1.421875 -12.25 2.515625 -13.03125 C 3.617188 -13.820312 5.125 -14.21875 7.03125 -14.21875 C 8 -14.21875 8.832031 -14.15625 9.53125 -14.03125 C 10.226562 -13.914062 10.867188 -13.71875 11.453125 -13.4375 L 10.859375 -10.109375 C 10.316406 -10.304688 9.722656 -10.460938 9.078125 -10.578125 C 8.429688 -10.691406 7.894531 -10.75 7.46875 -10.75 C 6.832031 -10.75 6.394531 -10.679688 6.15625 -10.546875 C 5.914062 -10.421875 5.796875 -10.242188 5.796875 -10.015625 C 5.796875 -9.609375 6.257812 -9.320312 7.1875 -9.15625 C 8.882812 -8.851562 10.148438 -8.328125 10.984375 -7.578125 C 11.828125 -6.835938 12.25 -5.820312 12.25 -4.53125 C 12.25 -3.0625 11.734375 -1.898438 10.703125 -1.046875 C 9.671875 -0.203125 8.179688 0.21875 6.234375 0.21875 Z M 6.234375 0.21875 "/></g></g><g transform="translate(54.308605, 40.141534)"><g><path d="M 7.53125 0.21875 C 5.882812 0.21875 4.601562 -0.25 3.6875 -1.1875 C 2.78125 -2.132812 2.328125 -3.4375 2.328125 -5.09375 L 2.328125 -10.546875 L 0.53125 -10.546875 L 0.53125 -14.015625 L 2.75 -14.015625 L 5.34375 -19.3125 L 8.171875 -19.3125 L 8.171875 -14.015625 L 11.421875 -14.015625 L 11.421875 -10.546875 L 8.171875 -10.546875 L 8.171875 -5.796875 C 8.171875 -5.328125 8.316406 -4.960938 8.609375 -4.703125 C 8.910156 -4.441406 9.332031 -4.3125 9.875 -4.3125 C 10.382812 -4.3125 10.84375 -4.421875 11.25 -4.640625 L 11.46875 -0.734375 C 11.007812 -0.453125 10.410156 -0.222656 9.671875 -0.046875 C 8.929688 0.128906 8.21875 0.21875 7.53125 0.21875 Z M 7.53125 0.21875 "/></g></g><g transform="translate(66.484491, 40.141534)"><g><path d="M 7.578125 0.21875 C 6.367188 0.21875 5.238281 -0.0976562 4.1875 -0.734375 C 3.132812 -1.378906 2.289062 -2.253906 1.65625 -3.359375 C 1.019531 -4.472656 0.703125 -5.710938 0.703125 -7.078125 C 0.703125 -8.421875 1.019531 -9.640625 1.65625 -10.734375 C 2.289062 -11.828125 3.140625 -12.679688 4.203125 -13.296875 C 5.265625 -13.910156 6.390625 -14.21875 7.578125 -14.21875 C 8.546875 -14.21875 9.445312 -13.945312 10.28125 -13.40625 C 11.113281 -12.863281 11.742188 -12.050781 12.171875 -10.96875 L 12.171875 -14.21875 L 18.046875 -14.21875 L 18.046875 0 L 12.171875 0 L 12.171875 -2.609375 C 11.242188 -0.722656 9.710938 0.21875 7.578125 0.21875 Z M 9.40625 -4.203125 C 10.144531 -4.203125 10.78125 -4.46875 11.3125 -5 C 11.851562 -5.53125 12.140625 -6.160156 12.171875 -6.890625 L 12.171875 -7.109375 C 12.140625 -7.859375 11.847656 -8.492188 11.296875 -9.015625 C 10.742188 -9.535156 10.113281 -9.796875 9.40625 -9.796875 C 8.625 -9.796875 7.957031 -9.519531 7.40625 -8.96875 C 6.851562 -8.414062 6.578125 -7.757812 6.578125 -7 C 6.578125 -6.21875 6.851562 -5.554688 7.40625 -5.015625 C 7.96875 -4.472656 8.632812 -4.203125 9.40625 -4.203125 Z M 9.40625 -4.203125 "/></g></g></g><g fill="#4a8ad5" fill-opacity="1"><g transform="translate(85.965909, 40.141534)"><g><path d="M 1.8125 -19.25 L 7.640625 -19.25 L 12.453125 -9.90625 L 17.15625 -19.25 L 22.96875 -19.25 L 22.96875 0 L 17.15625 0 L 17.15625 -10.265625 L 13.59375 -3.546875 L 11.21875 -3.546875 L 7.640625 -10.265625 L 7.640625 0 L 1.8125 0 Z M 1.8125 -19.25 "/></g></g></g><g fill="#4a8ad5" fill-opacity="1"><g transform="translate(110.793518, 40.141534)"><g><path d="M 8.765625 0.21875 C 7.191406 0.21875 5.796875 -0.0859375 4.578125 -0.703125 C 3.359375 -1.316406 2.40625 -2.164062 1.71875 -3.25 C 1.039062 -4.34375 0.703125 -5.601562 0.703125 -7.03125 C 0.703125 -8.445312 1.046875 -9.695312 1.734375 -10.78125 C 2.421875 -11.875 3.375 -12.71875 4.59375 -13.3125 C 5.820312 -13.914062 7.21875 -14.21875 8.78125 -14.21875 C 10.375 -14.21875 11.78125 -13.910156 13 -13.296875 C 14.21875 -12.691406 15.160156 -11.847656 15.828125 -10.765625 C 16.503906 -9.691406 16.84375 -8.445312 16.84375 -7.03125 C 16.84375 -5.59375 16.5 -4.328125 15.8125 -3.234375 C 15.132812 -2.140625 14.1875 -1.289062 12.96875 -0.6875 C 11.75 -0.0820312 10.347656 0.21875 8.765625 0.21875 Z M 8.8125 -3.96875 C 9.582031 -3.96875 10.210938 -4.253906 10.703125 -4.828125 C 11.203125 -5.398438 11.453125 -6.132812 11.453125 -7.03125 C 11.453125 -7.925781 11.203125 -8.65625 10.703125 -9.21875 C 10.210938 -9.789062 9.582031 -10.078125 8.8125 -10.078125 C 8.050781 -10.078125 7.421875 -9.789062 6.921875 -9.21875 C 6.429688 -8.65625 6.1875 -7.925781 6.1875 -7.03125 C 6.1875 -6.132812 6.429688 -5.398438 6.921875 -4.828125 C 7.421875 -4.253906 8.050781 -3.96875 8.8125 -3.96875 Z M 8.8125 -3.96875 "/></g></g></g><g fill="#4a8ad5" fill-opacity="1"><g transform="translate(128.343588, 40.141534)"><g><path d="M 0.03125 -14.015625 L 6.515625 -14.015625 L 8.671875 -5.625 L 10.78125 -14.015625 L 15.890625 -14.015625 L 11.453125 0 L 4.640625 0 Z M 0.03125 -14.015625 "/></g></g></g><g fill="#4a8ad5" fill-opacity="1"><g transform="translate(144.298196, 40.141534)"><g><path d="M 8.640625 0.21875 C 7.097656 0.21875 5.722656 -0.09375 4.515625 -0.71875 C 3.316406 -1.34375 2.378906 -2.195312 1.703125 -3.28125 C 1.035156 -4.375 0.703125 -5.613281 0.703125 -7 C 0.703125 -8.414062 1.046875 -9.671875 1.734375 -10.765625 C 2.421875 -11.867188 3.351562 -12.71875 4.53125 -13.3125 C 5.707031 -13.914062 7.015625 -14.21875 8.453125 -14.21875 C 9.828125 -14.21875 11.003906 -13.910156 11.984375 -13.296875 C 12.960938 -12.691406 13.695312 -11.875 14.1875 -10.84375 C 14.675781 -9.8125 14.921875 -8.648438 14.921875 -7.359375 C 14.921875 -7.023438 14.898438 -6.78125 14.859375 -6.625 L 6.46875 -5.546875 C 6.6875 -4.890625 7.046875 -4.414062 7.546875 -4.125 C 8.054688 -3.832031 8.722656 -3.6875 9.546875 -3.6875 C 10.816406 -3.6875 12.1875 -4.015625 13.65625 -4.671875 L 14.359375 -0.921875 C 12.617188 -0.160156 10.710938 0.21875 8.640625 0.21875 Z M 10.578125 -9.0625 C 10.273438 -10.238281 9.566406 -10.828125 8.453125 -10.828125 C 7.773438 -10.828125 7.238281 -10.570312 6.84375 -10.0625 C 6.457031 -9.5625 6.253906 -8.910156 6.234375 -8.109375 Z M 10.578125 -9.0625 "/></g></g></g></svg>