<svg xmlns="http://www.w3.org/2000/svg" xmlns:xlink="http://www.w3.org/1999/xlink" width="218" zoomAndPan="magnify" viewBox="0 0 163.5 32.999998" height="44" preserveAspectRatio="xMidYMid meet" version="1.0"><defs><g/><clipPath id="0643935db6"><path d="M 0 0.0507812 L 32 0.0507812 L 32 32 L 0 32 Z M 0 0.0507812 " clip-rule="nonzero"/></clipPath></defs><g clip-path="url(#0643935db6)"><path fill="#24bdc7" d="M 30.960938 13.988281 L 26.605469 9.632812 C 26.382812 9.410156 26.480469 9.023438 26.785156 8.945312 C 27.441406 8.773438 28.046875 8.371094 28.476562 7.734375 C 29.09375 6.808594 29.121094 5.558594 28.527344 4.617188 C 27.488281 2.96875 25.28125 2.789062 23.992188 4.082031 C 23.609375 4.460938 23.359375 4.917969 23.234375 5.40625 C 23.15625 5.707031 22.765625 5.789062 22.546875 5.570312 L 18.191406 1.21875 C 17.015625 0.0429688 15.113281 0.0429688 13.9375 1.21875 L 9.582031 5.574219 C 9.359375 5.796875 9.453125 6.183594 9.757812 6.261719 C 10.414062 6.433594 11.019531 6.835938 11.449219 7.472656 C 12.070312 8.394531 12.09375 9.644531 11.503906 10.585938 C 10.464844 12.238281 8.257812 12.417969 6.964844 11.125 C 6.585938 10.746094 6.332031 10.285156 6.207031 9.800781 C 6.132812 9.5 5.742188 9.414062 5.519531 9.632812 L 1.167969 13.988281 C -0.0078125 15.164062 -0.0078125 17.066406 1.167969 18.242188 L 5.523438 22.597656 C 5.746094 22.820312 5.652344 23.207031 5.34375 23.285156 C 4.691406 23.457031 4.082031 23.859375 3.652344 24.496094 C 3.035156 25.421875 3.011719 26.671875 3.601562 27.613281 C 4.640625 29.265625 6.847656 29.441406 8.140625 28.152344 C 8.519531 27.769531 8.769531 27.3125 8.894531 26.824219 C 8.972656 26.523438 9.363281 26.441406 9.582031 26.660156 L 13.9375 31.011719 C 15.113281 32.1875 17.015625 32.1875 18.191406 31.011719 L 22.546875 26.660156 C 22.765625 26.441406 22.679688 26.046875 22.378906 25.972656 C 21.894531 25.847656 21.433594 25.59375 21.054688 25.214844 C 19.761719 23.921875 19.941406 21.714844 21.59375 20.679688 C 22.535156 20.085938 23.785156 20.109375 24.707031 20.730469 C 25.347656 21.160156 25.746094 21.765625 25.917969 22.421875 C 26 22.726562 26.382812 22.820312 26.605469 22.597656 L 30.960938 18.242188 C 32.136719 17.066406 32.136719 15.164062 30.960938 13.988281 " fill-opacity="1" fill-rule="nonzero"/></g><g fill="#24bdc7" fill-opacity="1"><g transform="translate(37.385822, 21.976417)"><g><path d="M 1.015625 -10.6875 L 4.859375 -10.6875 C 6.453125 -10.6875 7.6875 -10.375 8.5625 -9.75 C 9.4375 -9.132812 9.875 -8.265625 9.875 -7.140625 C 9.875 -6.441406 9.660156 -5.828125 9.234375 -5.296875 C 8.804688 -4.765625 8.222656 -4.359375 7.484375 -4.078125 C 6.742188 -3.796875 5.921875 -3.65625 5.015625 -3.65625 L 4.359375 -3.65625 L 4.359375 0 L 1.015625 0 Z M 5.03125 -5.8125 C 5.582031 -5.8125 6.003906 -5.921875 6.296875 -6.140625 C 6.597656 -6.367188 6.75 -6.703125 6.75 -7.140625 C 6.75 -7.578125 6.601562 -7.90625 6.3125 -8.125 C 6.019531 -8.34375 5.59375 -8.453125 5.03125 -8.453125 L 4.359375 -8.453125 L 4.359375 -5.84375 C 4.566406 -5.820312 4.789062 -5.8125 5.03125 -5.8125 Z M 5.03125 -5.8125 "/></g></g></g><g fill="#24bdc7" fill-opacity="1"><g transform="translate(47.468324, 21.976417)"><g><path d="M 4.90625 0.125 C 4.09375 0.125 3.363281 -0.0195312 2.71875 -0.3125 C 2.082031 -0.601562 1.585938 -1.007812 1.234375 -1.53125 C 0.890625 -2.0625 0.71875 -2.664062 0.71875 -3.34375 L 0.71875 -7.78125 L 3.90625 -7.78125 L 3.90625 -3.390625 C 3.90625 -3.046875 4 -2.773438 4.1875 -2.578125 C 4.382812 -2.390625 4.628906 -2.296875 4.921875 -2.296875 C 5.203125 -2.296875 5.429688 -2.390625 5.609375 -2.578125 C 5.796875 -2.773438 5.890625 -3.046875 5.890625 -3.390625 L 5.890625 -7.78125 L 9.03125 -7.78125 L 9.03125 -3.34375 C 9.03125 -2.65625 8.851562 -2.050781 8.5 -1.53125 C 8.15625 -1.007812 7.671875 -0.601562 7.046875 -0.3125 C 6.429688 -0.0195312 5.71875 0.125 4.90625 0.125 Z M 4.90625 0.125 "/></g></g></g><g fill="#24bdc7" fill-opacity="1"><g transform="translate(57.224579, 21.976417)"><g><path d="M 0.484375 -1.65625 L 3.21875 -5.796875 L 0.59375 -5.796875 L 0.59375 -7.78125 L 7.046875 -7.78125 L 7.046875 -6.109375 L 4.453125 -1.984375 L 7.109375 -1.984375 L 7.109375 0 L 0.484375 0 Z M 0.484375 -1.65625 "/></g></g></g><g fill="#24bdc7" fill-opacity="1"><g transform="translate(64.836949, 21.976417)"><g><path d="M 0.484375 -1.65625 L 3.21875 -5.796875 L 0.59375 -5.796875 L 0.59375 -7.78125 L 7.046875 -7.78125 L 7.046875 -6.109375 L 4.453125 -1.984375 L 7.109375 -1.984375 L 7.109375 0 L 0.484375 0 Z M 0.484375 -1.65625 "/></g></g></g><g fill="#24bdc7" fill-opacity="1"><g transform="translate(72.44932, 21.976417)"><g><path d="M 3.515625 0.125 C 2.628906 0.125 1.945312 -0.148438 1.46875 -0.703125 C 0.988281 -1.253906 0.75 -2.015625 0.75 -2.984375 L 0.75 -10.234375 L 4.015625 -10.71875 L 4.015625 -3.21875 C 4.015625 -2.925781 4.082031 -2.710938 4.21875 -2.578125 C 4.363281 -2.453125 4.613281 -2.390625 4.96875 -2.390625 C 5.226562 -2.390625 5.484375 -2.453125 5.734375 -2.578125 L 5.84375 -0.40625 C 5.144531 -0.0507812 4.367188 0.125 3.515625 0.125 Z M 3.515625 0.125 "/></g></g></g><g fill="#24bdc7" fill-opacity="1"><g transform="translate(78.321716, 21.976417)"><g><path d="M 4.796875 0.125 C 3.941406 0.125 3.175781 -0.046875 2.5 -0.390625 C 1.832031 -0.742188 1.3125 -1.222656 0.9375 -1.828125 C 0.570312 -2.429688 0.390625 -3.117188 0.390625 -3.890625 C 0.390625 -4.671875 0.578125 -5.363281 0.953125 -5.96875 C 1.335938 -6.582031 1.859375 -7.054688 2.515625 -7.390625 C 3.171875 -7.722656 3.894531 -7.890625 4.6875 -7.890625 C 5.457031 -7.890625 6.113281 -7.71875 6.65625 -7.375 C 7.195312 -7.039062 7.601562 -6.585938 7.875 -6.015625 C 8.144531 -5.441406 8.28125 -4.796875 8.28125 -4.078125 C 8.28125 -3.898438 8.269531 -3.769531 8.25 -3.6875 L 3.59375 -3.078125 C 3.71875 -2.710938 3.914062 -2.445312 4.1875 -2.28125 C 4.46875 -2.125 4.835938 -2.046875 5.296875 -2.046875 C 6.003906 -2.046875 6.765625 -2.226562 7.578125 -2.59375 L 7.96875 -0.515625 C 7 -0.0859375 5.941406 0.125 4.796875 0.125 Z M 5.875 -5.03125 C 5.707031 -5.6875 5.3125 -6.015625 4.6875 -6.015625 C 4.3125 -6.015625 4.015625 -5.875 3.796875 -5.59375 C 3.585938 -5.3125 3.476562 -4.945312 3.46875 -4.5 Z M 5.875 -5.03125 "/></g></g></g><g fill="#24bdc7" fill-opacity="1"><g transform="translate(86.959422, 21.976417)"><g/></g></g><g fill="#24bdc7" fill-opacity="1"><g transform="translate(89.864553, 21.976417)"><g><path d="M 9.09375 0.25 C 7.15625 0.25 5.96875 -0.648438 5.53125 -2.453125 L 5.140625 -4.046875 L 4.40625 -4.046875 L 4.40625 0 L 1.015625 0 L 1.015625 -10.6875 L 5.71875 -10.6875 C 6.601562 -10.6875 7.382812 -10.550781 8.0625 -10.28125 C 8.738281 -10.019531 9.265625 -9.648438 9.640625 -9.171875 C 10.015625 -8.703125 10.203125 -8.15625 10.203125 -7.53125 C 10.203125 -6.832031 10.03125 -6.25 9.6875 -5.78125 C 9.351562 -5.3125 8.835938 -4.925781 8.140625 -4.625 C 8.210938 -4.226562 8.296875 -3.875 8.390625 -3.5625 C 8.515625 -3.164062 8.679688 -2.890625 8.890625 -2.734375 C 9.109375 -2.578125 9.425781 -2.5 9.84375 -2.5 C 9.988281 -2.5 10.21875 -2.519531 10.53125 -2.5625 L 10.53125 -0.03125 C 10.039062 0.15625 9.5625 0.25 9.09375 0.25 Z M 5 -6.234375 C 5.769531 -6.234375 6.3125 -6.316406 6.625 -6.484375 C 6.9375 -6.648438 7.09375 -6.941406 7.09375 -7.359375 C 7.09375 -7.710938 6.960938 -7.96875 6.703125 -8.125 C 6.453125 -8.289062 6.046875 -8.375 5.484375 -8.375 L 4.40625 -8.375 L 4.40625 -6.234375 Z M 5 -6.234375 "/></g></g></g><g fill="#24bdc7" fill-opacity="1"><g transform="translate(100.708289, 21.976417)"><g><path d="M 4.796875 0.125 C 3.941406 0.125 3.175781 -0.046875 2.5 -0.390625 C 1.832031 -0.742188 1.3125 -1.222656 0.9375 -1.828125 C 0.570312 -2.429688 0.390625 -3.117188 0.390625 -3.890625 C 0.390625 -4.671875 0.578125 -5.363281 0.953125 -5.96875 C 1.335938 -6.582031 1.859375 -7.054688 2.515625 -7.390625 C 3.171875 -7.722656 3.894531 -7.890625 4.6875 -7.890625 C 5.457031 -7.890625 6.113281 -7.71875 6.65625 -7.375 C 7.195312 -7.039062 7.601562 -6.585938 7.875 -6.015625 C 8.144531 -5.441406 8.28125 -4.796875 8.28125 -4.078125 C 8.28125 -3.898438 8.269531 -3.769531 8.25 -3.6875 L 3.59375 -3.078125 C 3.71875 -2.710938 3.914062 -2.445312 4.1875 -2.28125 C 4.46875 -2.125 4.835938 -2.046875 5.296875 -2.046875 C 6.003906 -2.046875 6.765625 -2.226562 7.578125 -2.59375 L 7.96875 -0.515625 C 7 -0.0859375 5.941406 0.125 4.796875 0.125 Z M 5.875 -5.03125 C 5.707031 -5.6875 5.3125 -6.015625 4.6875 -6.015625 C 4.3125 -6.015625 4.015625 -5.875 3.796875 -5.59375 C 3.585938 -5.3125 3.476562 -4.945312 3.46875 -4.5 Z M 5.875 -5.03125 "/></g></g></g><g fill="#24bdc7" fill-opacity="1"><g transform="translate(109.345995, 21.976417)"><g><path d="M 3.46875 0.125 C 2.375 0.125 1.421875 -0.0351562 0.609375 -0.359375 L 0.96875 -2.203125 C 1.707031 -1.929688 2.429688 -1.796875 3.140625 -1.796875 C 3.648438 -1.796875 3.90625 -1.941406 3.90625 -2.234375 C 3.90625 -2.378906 3.832031 -2.5 3.6875 -2.59375 C 3.539062 -2.6875 3.257812 -2.769531 2.84375 -2.84375 C 1.976562 -3.007812 1.359375 -3.285156 0.984375 -3.671875 C 0.609375 -4.066406 0.421875 -4.628906 0.421875 -5.359375 C 0.460938 -6.171875 0.785156 -6.796875 1.390625 -7.234375 C 2.003906 -7.671875 2.835938 -7.890625 3.890625 -7.890625 C 4.429688 -7.890625 4.894531 -7.851562 5.28125 -7.78125 C 5.675781 -7.71875 6.035156 -7.609375 6.359375 -7.453125 L 6.03125 -5.609375 C 5.726562 -5.722656 5.394531 -5.8125 5.03125 -5.875 C 4.675781 -5.9375 4.378906 -5.96875 4.140625 -5.96875 C 3.796875 -5.96875 3.554688 -5.929688 3.421875 -5.859375 C 3.285156 -5.785156 3.21875 -5.6875 3.21875 -5.5625 C 3.21875 -5.332031 3.472656 -5.171875 3.984375 -5.078125 C 4.929688 -4.910156 5.632812 -4.617188 6.09375 -4.203125 C 6.5625 -3.796875 6.796875 -3.234375 6.796875 -2.515625 C 6.796875 -1.703125 6.507812 -1.054688 5.9375 -0.578125 C 5.363281 -0.109375 4.539062 0.125 3.46875 0.125 Z M 3.46875 0.125 "/></g></g></g><g fill="#24bdc7" fill-opacity="1"><g transform="translate(116.523365, 21.976417)"><g><path d="M 4.90625 0.125 C 4.09375 0.125 3.363281 -0.0195312 2.71875 -0.3125 C 2.082031 -0.601562 1.585938 -1.007812 1.234375 -1.53125 C 0.890625 -2.0625 0.71875 -2.664062 0.71875 -3.34375 L 0.71875 -7.78125 L 3.90625 -7.78125 L 3.90625 -3.390625 C 3.90625 -3.046875 4 -2.773438 4.1875 -2.578125 C 4.382812 -2.390625 4.628906 -2.296875 4.921875 -2.296875 C 5.203125 -2.296875 5.429688 -2.390625 5.609375 -2.578125 C 5.796875 -2.773438 5.890625 -3.046875 5.890625 -3.390625 L 5.890625 -7.78125 L 9.03125 -7.78125 L 9.03125 -3.34375 C 9.03125 -2.65625 8.851562 -2.050781 8.5 -1.53125 C 8.15625 -1.007812 7.671875 -0.601562 7.046875 -0.3125 C 6.429688 -0.0195312 5.71875 0.125 4.90625 0.125 Z M 4.90625 0.125 "/></g></g></g><g fill="#24bdc7" fill-opacity="1"><g transform="translate(126.27962, 21.976417)"><g><path d="M 0.78125 -7.671875 L 3.890625 -7.671875 L 3.890625 -6.09375 C 4.242188 -6.695312 4.644531 -7.144531 5.09375 -7.4375 C 5.550781 -7.738281 6.085938 -7.890625 6.703125 -7.890625 C 7.316406 -7.890625 7.847656 -7.734375 8.296875 -7.421875 C 8.753906 -7.117188 9.09375 -6.710938 9.3125 -6.203125 C 9.976562 -7.328125 10.941406 -7.890625 12.203125 -7.890625 C 12.804688 -7.890625 13.332031 -7.726562 13.78125 -7.40625 C 14.226562 -7.082031 14.578125 -6.617188 14.828125 -6.015625 C 15.078125 -5.410156 15.203125 -4.703125 15.203125 -3.890625 L 15.203125 0 L 11.921875 0 L 11.921875 -3.890625 C 11.921875 -4.410156 11.832031 -4.804688 11.65625 -5.078125 C 11.476562 -5.347656 11.226562 -5.484375 10.90625 -5.484375 C 10.550781 -5.484375 10.242188 -5.332031 9.984375 -5.03125 C 9.734375 -4.726562 9.609375 -4.363281 9.609375 -3.9375 L 9.609375 0 L 6.375 0 L 6.375 -3.890625 C 6.375 -4.410156 6.28125 -4.804688 6.09375 -5.078125 C 5.914062 -5.347656 5.660156 -5.484375 5.328125 -5.484375 C 4.972656 -5.484375 4.671875 -5.332031 4.421875 -5.03125 C 4.171875 -4.726562 4.046875 -4.363281 4.046875 -3.9375 L 4.046875 0 L 0.78125 0 Z M 0.78125 -7.671875 "/></g></g></g><g fill="#24bdc7" fill-opacity="1"><g transform="translate(142.218977, 21.976417)"><g><path d="M 4.796875 0.125 C 3.941406 0.125 3.175781 -0.046875 2.5 -0.390625 C 1.832031 -0.742188 1.3125 -1.222656 0.9375 -1.828125 C 0.570312 -2.429688 0.390625 -3.117188 0.390625 -3.890625 C 0.390625 -4.671875 0.578125 -5.363281 0.953125 -5.96875 C 1.335938 -6.582031 1.859375 -7.054688 2.515625 -7.390625 C 3.171875 -7.722656 3.894531 -7.890625 4.6875 -7.890625 C 5.457031 -7.890625 6.113281 -7.71875 6.65625 -7.375 C 7.195312 -7.039062 7.601562 -6.585938 7.875 -6.015625 C 8.144531 -5.441406 8.28125 -4.796875 8.28125 -4.078125 C 8.28125 -3.898438 8.269531 -3.769531 8.25 -3.6875 L 3.59375 -3.078125 C 3.71875 -2.710938 3.914062 -2.445312 4.1875 -2.28125 C 4.46875 -2.125 4.835938 -2.046875 5.296875 -2.046875 C 6.003906 -2.046875 6.765625 -2.226562 7.578125 -2.59375 L 7.96875 -0.515625 C 7 -0.0859375 5.941406 0.125 4.796875 0.125 Z M 5.875 -5.03125 C 5.707031 -5.6875 5.3125 -6.015625 4.6875 -6.015625 C 4.3125 -6.015625 4.015625 -5.875 3.796875 -5.59375 C 3.585938 -5.3125 3.476562 -4.945312 3.46875 -4.5 Z M 5.875 -5.03125 "/></g></g></g></svg>