<svg xmlns="http://www.w3.org/2000/svg" xmlns:xlink="http://www.w3.org/1999/xlink" width="362" zoomAndPan="magnify" viewBox="0 0 271.5 282.749996" height="377" preserveAspectRatio="xMidYMid meet" version="1.0"><defs><filter x="0%" y="0%" width="100%" height="100%" id="0f58783457"><feColorMatrix values="0 0 0 0 1 0 0 0 0 1 0 0 0 0 1 0 0 0 1 0" color-interpolation-filters="sRGB"/></filter><clipPath id="421cd18448"><path d="M 0 0.136719 L 271 0.136719 L 271 282.367188 L 0 282.367188 Z M 0 0.136719 " clip-rule="nonzero"/></clipPath><mask id="1a6123a52f"><g filter="url(#0f58783457)"><rect x="-27.15" width="325.8" fill="#000000" y="-28.275" height="339.299995" fill-opacity="0.14"/></g></mask><clipPath id="13b86c3587"><path d="M 1 0.136719 L 270 0.136719 L 270 282 L 1 282 Z M 1 0.136719 " clip-rule="nonzero"/></clipPath><clipPath id="0321c4d6e5"><rect x="0" width="271" y="0" height="283"/></clipPath><clipPath id="43bee386d5"><path d="M 1 0.136719 L 270 0.136719 L 270 282 L 1 282 Z M 1 0.136719 " clip-rule="nonzero"/></clipPath></defs><g clip-path="url(#421cd18448)"><g mask="url(#1a6123a52f)"><g transform="matrix(1, 0, 0, 1, 0, -0.000000000000011602)"><g clip-path="url(#0321c4d6e5)"><g clip-path="url(#13b86c3587)"><path fill="#000000" d="M 62.167969 256.074219 C 53.296875 250.304688 45.074219 243.488281 37.925781 235.707031 C 38.148438 235.730469 38.335938 235.761719 38.574219 235.773438 C 35.222656 230.761719 32.472656 226.101562 30.144531 221.265625 C 30.496094 220.980469 30.804688 220.792969 31.089844 220.648438 C 31.230469 220.871094 31.363281 221.089844 31.496094 221.308594 C 32.222656 222.519531 33.167969 223.5625 34.023438 224.660156 L 36.664062 227.9375 C 37.652344 229.191406 38.53125 230.542969 39.488281 231.839844 C 40.46875 233.113281 41.476562 234.378906 42.601562 235.519531 C 45.777344 238.652344 49.382812 241.191406 52.96875 243.777344 C 53.738281 244.535156 54.507812 245.292969 55.296875 246.027344 C 57.464844 248.140625 59.773438 250.085938 62.070312 252.085938 C 64.445312 253.964844 66.808594 255.921875 69.339844 257.625 C 76.605469 262.738281 84.335938 267.574219 92.800781 271.011719 C 92.480469 270.914062 92.164062 270.828125 91.84375 270.726562 C 81.367188 267.054688 71.351562 262.1875 62.167969 256.074219 Z M 18.070312 203.808594 C 17.167969 201.4375 16.222656 199.0625 15.597656 196.609375 C 15.035156 194.136719 14.628906 191.640625 15.058594 188.992188 C 15.136719 188.5 14.960938 187.980469 14.816406 187.507812 L 14.125 185.15625 L 13.519531 182.785156 C 13.136719 181.199219 12.707031 179.628906 12.496094 178 C 11.296875 170.515625 10.914062 162.964844 11.289062 155.511719 C 11.320312 154.917969 11.96875 154.335938 12.398438 153.753906 C 12.332031 157.996094 12.605469 162.21875 12.839844 166.472656 C 13.234375 171.890625 13.507812 177.441406 14.773438 182.828125 C 15.222656 185.234375 16.058594 187.53125 16.796875 189.871094 C 17.609375 192.179688 18.488281 194.46875 19.324219 196.777344 C 19.554688 197.402344 19.808594 198.027344 20.050781 198.644531 C 20.105469 198.929688 20.171875 199.203125 20.226562 199.480469 C 20.578125 201.503906 20.972656 203.523438 21.929688 205.273438 C 22.390625 206.164062 23.03125 206.953125 23.898438 207.613281 C 24.195312 208.238281 24.492188 208.878906 24.800781 209.503906 C 24.570312 209.546875 24.339844 209.59375 24.074219 209.636719 C 25.933594 215.496094 27.976562 221.222656 31.1875 226.289062 C 32.046875 227.5625 32.695312 228.839844 33.210938 230.210938 C 32.332031 229.125 31.453125 228.015625 30.605469 226.882812 C 25.339844 219.804688 21.269531 211.910156 18.070312 203.808594 Z M 12.398438 153.511719 C 11.253906 152.359375 11.1875 151.136719 11.417969 149.917969 C 11.660156 148.6875 12.289062 147.457031 12.320312 146.234375 C 12.308594 147.445312 12.246094 148.652344 12.277344 149.875 C 12.308594 151.082031 12.355469 152.304688 12.398438 153.511719 Z M 11.277344 143.179688 C 11.550781 143.929688 14.15625 144.816406 12.332031 146.179688 C 12.332031 146.179688 12.332031 146.171875 12.332031 146.171875 C 11.066406 144.894531 10.957031 144.773438 11.277344 143.179688 Z M 9.296875 136.101562 C 8.617188 137.53125 8.253906 139.015625 7.914062 140.507812 C 7.570312 141.992188 7.351562 143.511719 7.242188 145.015625 L 6.8125 149.554688 C 6.703125 151.074219 6.550781 152.589844 6.242188 154.105469 C 5.84375 155.953125 5.789062 157.820312 5.691406 159.699219 C 5.582031 161.582031 5.625 163.460938 5.625 165.351562 C 4.824219 162.273438 4.40625 159.140625 4.183594 156.007812 C 4.140625 152.863281 4.25 149.710938 5.152344 146.632812 C 5.679688 144.652344 5.363281 142.519531 5.613281 140.476562 C 5.910156 137.101562 6.484375 133.773438 7.03125 130.441406 L 8.078125 125.496094 C 8.40625 123.847656 8.914062 122.230469 9.320312 120.605469 C 9.386719 120.351562 9.519531 120.085938 9.472656 119.835938 C 9.164062 118.140625 9.386719 116.535156 9.726562 114.953125 C 10.078125 113.371094 10.628906 111.84375 11.289062 110.347656 C 11.9375 108.851562 12.519531 107.347656 13.089844 105.839844 C 13.652344 104.335938 14.070312 102.773438 14.167969 101.09375 C 15.222656 100.191406 15.464844 98.863281 15.851562 97.574219 C 16.234375 96.3125 16.753906 95.101562 18.5 94.683594 C 21.324219 89.367188 24.65625 84.332031 28.195312 79.503906 L 27.121094 78.679688 C 25.414062 80.703125 23.855469 82.847656 22.269531 84.957031 C 20.785156 87.132812 19.226562 89.253906 17.90625 91.488281 C 18.378906 88.671875 22.710938 80.746094 30.296875 72.636719 C 37.761719 64.445312 48.535156 56.378906 59.113281 51.75 C 54.175781 54.820312 49.539062 58.378906 44.855469 61.917969 C 42.929688 63.25 41.378906 64.941406 39.851562 66.632812 C 38.34375 68.359375 37.070312 70.261719 35.75 72.140625 C 32.496094 77.164062 29 82 26.207031 87.253906 C 25.152344 89.453125 23.996094 91.597656 23.214844 93.914062 C 22.808594 95.058594 22.425781 96.222656 22.085938 97.390625 C 21.765625 98.566406 21.523438 99.773438 21.324219 100.996094 C 22.535156 98.167969 23.976562 95.464844 25.382812 92.738281 L 26.328125 93.246094 C 25.855469 94.265625 25.449219 95.355469 25.054688 96.433594 C 22.898438 99.433594 21.117188 102.710938 19.820312 106.226562 C 19.710938 106.511719 19.609375 106.820312 19.488281 107.117188 C 19.214844 107.566406 18.960938 108.019531 18.730469 108.492188 C 18.179688 109.6875 17.796875 110.953125 17.410156 112.21875 C 16.609375 114.710938 16.214844 117.304688 14.960938 119.679688 C 12.507812 124.914062 11.671875 130.761719 9.296875 136.101562 Z M 4.898438 169.375 L 5.539062 169.273438 C 6.042969 172.089844 6.503906 174.914062 7.199219 177.695312 L 6.570312 177.847656 C 5.867188 175.046875 5.40625 172.210938 4.898438 169.375 Z M 8.144531 189.960938 C 7.253906 187.5 6.59375 184.96875 5.878906 182.464844 L 6.308594 182.375 C 7.023438 184.871094 7.671875 187.390625 8.5625 189.828125 Z M 92.183594 37.816406 C 86.015625 41.96875 79.132812 43.464844 72.472656 46.300781 L 71.953125 45.277344 C 78.484375 42.167969 85.269531 39.660156 92.183594 37.816406 Z M 96.726562 28.910156 C 94.769531 29.296875 92.921875 29.351562 90.976562 29.164062 C 90.777344 29.152344 90.570312 29.132812 90.371094 29.121094 C 90.546875 29.085938 90.722656 29.042969 90.910156 29.019531 C 94.703125 28.582031 98.484375 28.371094 102.246094 28.339844 C 100.386719 28.425781 98.550781 28.601562 96.726562 28.910156 Z M 117.121094 29.230469 C 116.074219 29.757812 115.074219 30.605469 114.164062 31.867188 C 114.449219 30.539062 114.601562 29.867188 114.820312 28.8125 C 114.964844 28.824219 115.109375 28.835938 115.238281 28.84375 C 115.933594 28.910156 116.546875 29.011719 117.121094 29.230469 Z M 139.074219 30.933594 C 137.601562 30.757812 136.128906 30.605469 134.644531 30.484375 C 133.160156 30.382812 131.664062 30.195312 130.171875 29.945312 C 128.972656 29.757812 127.773438 29.558594 126.585938 29.328125 C 131.511719 29.460938 136.292969 29.824219 141.066406 30.484375 C 140.660156 30.714844 139.957031 30.855469 139.074219 30.933594 Z M 171.421875 34.5625 L 176.09375 36.351562 L 175.597656 37.453125 L 171.257812 34.921875 Z M 112.832031 274.609375 C 112.855469 274.617188 112.886719 274.617188 112.921875 274.628906 C 108.773438 274.089844 103.246094 272.847656 97.21875 270.617188 C 97.210938 270.605469 97.199219 270.605469 97.1875 270.59375 C 102.277344 272.320312 107.5 273.695312 112.832031 274.609375 Z M 219.058594 232.046875 L 219.347656 232.34375 L 215.871094 235.960938 L 215.058594 235.082031 Z M 234.945312 204.832031 Z M 106.730469 31.273438 C 105.816406 31.429688 104.90625 31.605469 104.015625 31.835938 L 103.785156 30.988281 C 104.707031 30.679688 105.628906 30.417969 106.578125 30.1875 Z M 28.648438 216.660156 C 28.769531 216.867188 28.902344 217.078125 29.023438 217.285156 C 28.867188 217.089844 28.703125 216.914062 28.558594 216.714844 Z M 268.207031 199.511719 C 266.699219 198.832031 265.414062 199.335938 264.621094 200.765625 C 263.742188 202.371094 262.839844 203.953125 262.027344 205.570312 C 259.464844 210.371094 257.066406 215.308594 253.714844 219.5625 C 248.644531 226.058594 243.542969 232.398438 237.894531 238.191406 C 232.242188 243.972656 226.085938 249.214844 219.257812 253.351562 C 216.464844 255.109375 213.574219 256.714844 210.769531 258.40625 C 207.890625 259.976562 205.085938 261.636719 202.152344 263.097656 C 199.292969 264.648438 196.3125 265.96875 193.378906 267.34375 C 190.375 268.585938 187.40625 269.859375 184.328125 270.847656 C 175.566406 273.816406 166.59375 275.914062 157.601562 277.167969 L 149.652344 278.378906 C 146.980469 278.640625 144.320312 278.9375 141.660156 278.773438 C 139.25 278.621094 136.867188 278.554688 134.492188 278.445312 C 144.882812 278.15625 155.257812 276.53125 165.230469 273.597656 C 165.824219 273.429688 166.351562 273.089844 166.859375 272.683594 C 168.441406 272.265625 170.003906 271.816406 171.542969 271.300781 C 184.484375 267.132812 196.476562 260.449219 207.570312 252.644531 C 212.628906 249.074219 217.476562 245.183594 222.160156 241.070312 C 226.8125 236.917969 231.1875 232.421875 235.320312 227.671875 C 237.257812 225.308594 239.640625 223.308594 238.386719 219.617188 C 239.082031 218.824219 239.816406 218.054688 240.664062 217.339844 C 241.136719 216.945312 241.203125 216.144531 241.421875 215.515625 C 241.839844 214.207031 241.984375 212.78125 242.597656 211.613281 C 244.402344 208.195312 246.03125 204.699219 247.503906 201.148438 C 248.8125 198.621094 250.085938 196.070312 251.285156 193.46875 C 253.859375 187.761719 256.035156 181.847656 257.882812 175.769531 C 259.597656 169.679688 261.015625 163.449219 261.882812 157.105469 C 262.148438 155.457031 262.179688 153.789062 262.257812 152.117188 C 262.300781 150.785156 262.015625 149.589844 260.089844 149.402344 C 259.664062 149.367188 259.300781 149.378906 258.949219 149.433594 C 259.113281 143.972656 258.957031 138.488281 258.386719 133.035156 C 257.773438 126.78125 256.792969 120.539062 255.40625 114.371094 C 252.351562 100.015625 247.195312 85.945312 239.6875 72.800781 C 236.683594 67.601562 233.332031 62.578125 229.667969 57.71875 C 225.953125 52.929688 222.039062 48.203125 217.730469 43.816406 C 208.023438 33.671875 196.742188 24.667969 184.042969 17.558594 C 169.34375 9.433594 152.875 3.828125 135.578125 1.246094 L 130.457031 0.597656 C 128.742188 0.421875 127.015625 0.3125 125.300781 0.167969 C 123.738281 0.0351562 122.296875 0.246094 122.242188 2.203125 C 122.1875 3.859375 123.15625 4.851562 124.78125 5.027344 C 126.597656 5.214844 128.410156 5.433594 130.214844 5.566406 C 135.644531 6.070312 141.121094 6.367188 146.332031 7.816406 C 154.292969 9.972656 162.109375 12.226562 169.640625 15.195312 C 177.148438 18.171875 184.371094 21.8125 190.828125 26.503906 C 193.53125 28.40625 196.125 30.460938 198.777344 32.382812 C 201.347656 34.429688 203.953125 36.375 206.4375 38.507812 C 208.976562 40.550781 211.351562 42.792969 213.75 44.960938 C 216.046875 47.257812 218.378906 49.488281 220.46875 51.949219 C 226.613281 58.875 232.011719 66.335938 236.652344 74.140625 L 240.828125 81.011719 C 242.117188 83.363281 243.414062 85.703125 244.292969 88.222656 C 245.28125 91.058594 246.382812 93.804688 247.347656 96.597656 C 248.425781 99.355469 249.328125 102.171875 250.296875 104.953125 C 252.066406 110.558594 253.679688 116.25 254.308594 122.097656 C 254.957031 127.15625 255.703125 132.1875 256.132812 137.265625 C 256.59375 144.949219 256.417969 152.65625 255.582031 160.273438 C 253.328125 168 250.207031 175.296875 246.632812 182.167969 C 247.183594 179.847656 247.777344 177.539062 248.523438 175.265625 C 249.898438 171.1875 250.449219 166.878906 251.097656 162.613281 C 251.449219 160.480469 251.691406 158.335938 252.199219 156.214844 C 252.636719 154.09375 253.164062 151.960938 254.011719 149.820312 C 254.109375 149.566406 254.054688 149.292969 254.066406 149.027344 C 254.636719 138.210938 254.089844 127.15625 251.605469 116.414062 C 250.21875 110.007812 248.109375 103.773438 245.632812 97.695312 C 244.445312 94.628906 243.015625 91.664062 241.644531 88.660156 C 240.148438 85.726562 238.71875 82.738281 237.078125 79.859375 C 235.550781 76.933594 233.738281 74.175781 231.921875 71.40625 C 229.988281 68.722656 228.03125 66.039062 225.832031 63.558594 C 216.992188 53.234375 206.1875 44.773438 194.695312 37.5625 C 189.441406 34.285156 183.988281 31.320312 178.382812 28.59375 C 172.75 25.910156 166.914062 23.613281 160.933594 21.632812 C 157.984375 20.753906 155.203125 19.316406 152.257812 21.964844 C 151.675781 22.480469 150.664062 22.515625 149.882812 22.449219 C 147.464844 22.25 145 22.304688 142.628906 21.867188 C 136.226562 20.953125 129.753906 20.382812 123.210938 20.152344 C 116.945312 19.984375 110.644531 20.261719 104.332031 20.910156 C 98.054688 21.679688 91.757812 22.789062 85.566406 24.4375 C 83.9375 24.832031 82.386719 25.449219 80.816406 26.019531 C 79.574219 26.503906 78.585938 27.230469 79.15625 29.066406 C 79.761719 30.976562 80.980469 31.625 82.5 31.382812 C 83.542969 31.207031 84.542969 30.789062 85.554688 30.460938 C 85.796875 30.382812 86.039062 30.308594 86.292969 30.21875 C 85.851562 30.660156 85.46875 31.253906 85.117188 32.054688 C 91.042969 30.890625 96.394531 30.164062 101.761719 29.878906 C 102.496094 32.570312 101.308594 32.835938 100.011719 33.21875 C 95.394531 34.738281 90.503906 35.285156 85.886719 36.96875 C 80.265625 38.914062 74.691406 41.058594 69.183594 43.496094 C 66.402344 44.671875 63.71875 46.046875 60.984375 47.398438 C 58.332031 48.859375 55.617188 50.289062 53.054688 51.960938 C 45.449219 56.730469 37.925781 62.039062 31.429688 68.613281 C 24.503906 75.667969 18.421875 83.75 13.75 92.628906 C 7.085938 105.535156 2.855469 119.746094 1.25 134.1875 C 1.074219 135.429688 1.746094 136.738281 2.007812 138.015625 C 2.183594 138.914062 2.382812 139.851562 2.292969 140.738281 C 1.25 151.25 1.492188 161.910156 3.109375 172.441406 C 3.515625 175.527344 4.230469 178.5625 4.855469 181.617188 C 5.648438 184.628906 6.363281 187.675781 7.363281 190.632812 C 8.242188 193.632812 9.375 196.535156 10.453125 199.480469 C 11.660156 202.359375 12.792969 205.28125 14.179688 208.085938 C 15.554688 211.121094 17.554688 213.824219 19.324219 216.625 C 20.257812 217.988281 21.148438 219.386719 21.917969 220.859375 C 22.6875 222.34375 23.4375 223.824219 23.953125 225.496094 C 24.152344 226.078125 24.855469 226.453125 25.351562 226.902344 C 26.394531 227.792969 27.660156 228.464844 28.492188 229.496094 C 35.191406 237.652344 42.972656 244.832031 51.253906 251.292969 C 59.3125 257.625 68.039062 263.144531 77.34375 267.628906 C 83.003906 270.308594 88.851562 272.628906 94.878906 274.429688 C 100.882812 276.289062 107.015625 277.796875 113.238281 278.917969 C 127.664062 281.640625 142.636719 282.335938 157.65625 280.488281 C 163.617188 279.742188 169.550781 278.585938 175.445312 277.089844 C 181.304688 275.519531 187.1875 273.738281 192.894531 271.464844 C 206 266.429688 218.675781 259.515625 230.140625 250.558594 C 243.324219 240.148438 254.859375 227.125 263.929688 212.175781 L 266.511719 207.710938 C 267.335938 206.195312 268.105469 204.65625 268.910156 203.117188 C 269.625 201.734375 269.996094 200.324219 268.207031 199.511719 " fill-opacity="1" fill-rule="nonzero"/></g></g></g></g></g><g clip-path="url(#43bee386d5)"><path fill="#000000" d="M 62.167969 256.074219 C 53.296875 250.304688 45.074219 243.488281 37.925781 235.707031 C 38.148438 235.730469 38.335938 235.761719 38.574219 235.773438 C 35.222656 230.761719 32.472656 226.101562 30.144531 221.265625 C 30.496094 220.980469 30.804688 220.792969 31.089844 220.648438 C 31.230469 220.871094 31.363281 221.089844 31.496094 221.308594 C 32.222656 222.519531 33.167969 223.5625 34.023438 224.660156 L 36.664062 227.9375 C 37.652344 229.191406 38.53125 230.542969 39.488281 231.839844 C 40.46875 233.113281 41.476562 234.378906 42.601562 235.519531 C 45.777344 238.652344 49.382812 241.191406 52.96875 243.777344 C 53.738281 244.535156 54.507812 245.292969 55.296875 246.027344 C 57.464844 248.140625 59.773438 250.085938 62.070312 252.085938 C 64.445312 253.964844 66.808594 255.921875 69.339844 257.625 C 76.605469 262.738281 84.335938 267.574219 92.800781 271.011719 C 92.480469 270.914062 92.164062 270.828125 91.84375 270.726562 C 81.367188 267.054688 71.351562 262.1875 62.167969 256.074219 Z M 18.070312 203.808594 C 17.167969 201.4375 16.222656 199.0625 15.597656 196.609375 C 15.035156 194.136719 14.628906 191.640625 15.058594 188.992188 C 15.136719 188.5 14.960938 187.980469 14.816406 187.507812 L 14.125 185.15625 L 13.519531 182.785156 C 13.136719 181.199219 12.707031 179.628906 12.496094 178 C 11.296875 170.515625 10.914062 162.964844 11.289062 155.511719 C 11.320312 154.917969 11.96875 154.335938 12.398438 153.753906 C 12.332031 157.996094 12.605469 162.21875 12.839844 166.472656 C 13.234375 171.890625 13.507812 177.441406 14.773438 182.828125 C 15.222656 185.234375 16.058594 187.53125 16.796875 189.871094 C 17.609375 192.179688 18.488281 194.46875 19.324219 196.777344 C 19.554688 197.402344 19.808594 198.027344 20.050781 198.644531 C 20.105469 198.929688 20.171875 199.203125 20.226562 199.480469 C 20.578125 201.503906 20.972656 203.523438 21.929688 205.273438 C 22.390625 206.164062 23.03125 206.953125 23.898438 207.613281 C 24.195312 208.238281 24.492188 208.878906 24.800781 209.503906 C 24.570312 209.546875 24.339844 209.59375 24.074219 209.636719 C 25.933594 215.496094 27.976562 221.222656 31.1875 226.289062 C 32.046875 227.5625 32.695312 228.839844 33.210938 230.210938 C 32.332031 229.125 31.453125 228.015625 30.605469 226.882812 C 25.339844 219.804688 21.269531 211.910156 18.070312 203.808594 Z M 12.398438 153.511719 C 11.253906 152.359375 11.1875 151.136719 11.417969 149.917969 C 11.660156 148.6875 12.289062 147.457031 12.320312 146.234375 C 12.308594 147.445312 12.246094 148.652344 12.277344 149.875 C 12.308594 151.082031 12.355469 152.304688 12.398438 153.511719 Z M 11.277344 143.179688 C 11.550781 143.929688 14.15625 144.816406 12.332031 146.179688 C 12.332031 146.179688 12.332031 146.171875 12.332031 146.171875 C 11.066406 144.894531 10.957031 144.773438 11.277344 143.179688 Z M 9.296875 136.101562 C 8.617188 137.53125 8.253906 139.015625 7.914062 140.507812 C 7.570312 141.992188 7.351562 143.511719 7.242188 145.015625 L 6.8125 149.554688 C 6.703125 151.074219 6.550781 152.589844 6.242188 154.105469 C 5.84375 155.953125 5.789062 157.820312 5.691406 159.699219 C 5.582031 161.582031 5.625 163.460938 5.625 165.351562 C 4.824219 162.273438 4.40625 159.140625 4.183594 156.007812 C 4.140625 152.863281 4.25 149.710938 5.152344 146.632812 C 5.679688 144.652344 5.363281 142.519531 5.613281 140.476562 C 5.910156 137.101562 6.484375 133.773438 7.03125 130.441406 L 8.078125 125.496094 C 8.40625 123.847656 8.914062 122.230469 9.320312 120.605469 C 9.386719 120.351562 9.519531 120.085938 9.472656 119.835938 C 9.164062 118.140625 9.386719 116.535156 9.726562 114.953125 C 10.078125 113.371094 10.628906 111.84375 11.289062 110.347656 C 11.9375 108.851562 12.519531 107.347656 13.089844 105.839844 C 13.652344 104.335938 14.070312 102.773438 14.167969 101.09375 C 15.222656 100.191406 15.464844 98.863281 15.851562 97.574219 C 16.234375 96.3125 16.753906 95.101562 18.5 94.683594 C 21.324219 89.367188 24.65625 84.332031 28.195312 79.503906 L 27.121094 78.679688 C 25.414062 80.703125 23.855469 82.847656 22.269531 84.957031 C 20.785156 87.132812 19.226562 89.253906 17.90625 91.488281 C 18.378906 88.671875 22.710938 80.746094 30.296875 72.636719 C 37.761719 64.445312 48.535156 56.378906 59.113281 51.75 C 54.175781 54.820312 49.539062 58.378906 44.855469 61.917969 C 42.929688 63.25 41.378906 64.941406 39.851562 66.632812 C 38.34375 68.359375 37.070312 70.261719 35.75 72.140625 C 32.496094 77.164062 29 82 26.207031 87.253906 C 25.152344 89.453125 23.996094 91.597656 23.214844 93.914062 C 22.808594 95.058594 22.425781 96.222656 22.085938 97.390625 C 21.765625 98.566406 21.523438 99.773438 21.324219 100.996094 C 22.535156 98.167969 23.976562 95.464844 25.382812 92.738281 L 26.328125 93.246094 C 25.855469 94.265625 25.449219 95.355469 25.054688 96.433594 C 22.898438 99.433594 21.117188 102.710938 19.820312 106.226562 C 19.710938 106.511719 19.609375 106.820312 19.488281 107.117188 C 19.214844 107.566406 18.960938 108.019531 18.730469 108.492188 C 18.179688 109.6875 17.796875 110.953125 17.410156 112.21875 C 16.609375 114.710938 16.214844 117.304688 14.960938 119.679688 C 12.507812 124.914062 11.671875 130.761719 9.296875 136.101562 Z M 4.898438 169.375 L 5.539062 169.273438 C 6.042969 172.089844 6.503906 174.914062 7.199219 177.695312 L 6.570312 177.847656 C 5.867188 175.046875 5.40625 172.210938 4.898438 169.375 Z M 8.144531 189.960938 C 7.253906 187.5 6.59375 184.96875 5.878906 182.464844 L 6.308594 182.375 C 7.023438 184.871094 7.671875 187.390625 8.5625 189.828125 Z M 92.183594 37.816406 C 86.015625 41.96875 79.132812 43.464844 72.472656 46.300781 L 71.953125 45.277344 C 78.484375 42.167969 85.269531 39.660156 92.183594 37.816406 Z M 96.726562 28.910156 C 94.769531 29.296875 92.921875 29.351562 90.976562 29.164062 C 90.777344 29.152344 90.570312 29.132812 90.371094 29.121094 C 90.546875 29.085938 90.722656 29.042969 90.910156 29.019531 C 94.703125 28.582031 98.484375 28.371094 102.246094 28.339844 C 100.386719 28.425781 98.550781 28.601562 96.726562 28.910156 Z M 117.121094 29.230469 C 116.074219 29.757812 115.074219 30.605469 114.164062 31.867188 C 114.449219 30.539062 114.601562 29.867188 114.820312 28.8125 C 114.964844 28.824219 115.109375 28.835938 115.238281 28.84375 C 115.933594 28.910156 116.546875 29.011719 117.121094 29.230469 Z M 139.074219 30.933594 C 137.601562 30.757812 136.128906 30.605469 134.644531 30.484375 C 133.160156 30.382812 131.664062 30.195312 130.171875 29.945312 C 128.972656 29.757812 127.773438 29.558594 126.585938 29.328125 C 131.511719 29.460938 136.292969 29.824219 141.066406 30.484375 C 140.660156 30.714844 139.957031 30.855469 139.074219 30.933594 Z M 171.421875 34.5625 L 176.09375 36.351562 L 175.597656 37.453125 L 171.257812 34.921875 Z M 112.832031 274.609375 C 112.855469 274.617188 112.886719 274.617188 112.921875 274.628906 C 108.773438 274.089844 103.246094 272.847656 97.21875 270.617188 C 97.210938 270.605469 97.199219 270.605469 97.1875 270.59375 C 102.277344 272.320312 107.5 273.695312 112.832031 274.609375 Z M 219.058594 232.046875 L 219.347656 232.34375 L 215.871094 235.960938 L 215.058594 235.082031 Z M 234.945312 204.832031 Z M 106.730469 31.273438 C 105.816406 31.429688 104.90625 31.605469 104.015625 31.835938 L 103.785156 30.988281 C 104.707031 30.679688 105.628906 30.417969 106.578125 30.1875 Z M 28.648438 216.660156 C 28.769531 216.867188 28.902344 217.078125 29.023438 217.285156 C 28.867188 217.089844 28.703125 216.914062 28.558594 216.714844 Z M 268.207031 199.511719 C 266.699219 198.832031 265.414062 199.335938 264.621094 200.765625 C 263.742188 202.371094 262.839844 203.953125 262.027344 205.570312 C 259.464844 210.371094 257.066406 215.308594 253.714844 219.5625 C 248.644531 226.058594 243.542969 232.398438 237.894531 238.191406 C 232.242188 243.972656 226.085938 249.214844 219.257812 253.351562 C 216.464844 255.109375 213.574219 256.714844 210.769531 258.40625 C 207.890625 259.976562 205.085938 261.636719 202.152344 263.097656 C 199.292969 264.648438 196.3125 265.96875 193.378906 267.34375 C 190.375 268.585938 187.40625 269.859375 184.328125 270.847656 C 175.566406 273.816406 166.59375 275.914062 157.601562 277.167969 L 149.652344 278.378906 C 146.980469 278.640625 144.320312 278.9375 141.660156 278.773438 C 139.25 278.621094 136.867188 278.554688 134.492188 278.445312 C 144.882812 278.15625 155.257812 276.53125 165.230469 273.597656 C 165.824219 273.429688 166.351562 273.089844 166.859375 272.683594 C 168.441406 272.265625 170.003906 271.816406 171.542969 271.300781 C 184.484375 267.132812 196.476562 260.449219 207.570312 252.644531 C 212.628906 249.074219 217.476562 245.183594 222.160156 241.070312 C 226.8125 236.917969 231.1875 232.421875 235.320312 227.671875 C 237.257812 225.308594 239.640625 223.308594 238.386719 219.617188 C 239.082031 218.824219 239.816406 218.054688 240.664062 217.339844 C 241.136719 216.945312 241.203125 216.144531 241.421875 215.515625 C 241.839844 214.207031 241.984375 212.78125 242.597656 211.613281 C 244.402344 208.195312 246.03125 204.699219 247.503906 201.148438 C 248.8125 198.621094 250.085938 196.070312 251.285156 193.46875 C 253.859375 187.761719 256.035156 181.847656 257.882812 175.769531 C 259.597656 169.679688 261.015625 163.449219 261.882812 157.105469 C 262.148438 155.457031 262.179688 153.789062 262.257812 152.117188 C 262.300781 150.785156 262.015625 149.589844 260.089844 149.402344 C 259.664062 149.367188 259.300781 149.378906 258.949219 149.433594 C 259.113281 143.972656 258.957031 138.488281 258.386719 133.035156 C 257.773438 126.78125 256.792969 120.539062 255.40625 114.371094 C 252.351562 100.015625 247.195312 85.945312 239.6875 72.800781 C 236.683594 67.601562 233.332031 62.578125 229.667969 57.71875 C 225.953125 52.929688 222.039062 48.203125 217.730469 43.816406 C 208.023438 33.671875 196.742188 24.667969 184.042969 17.558594 C 169.34375 9.433594 152.875 3.828125 135.578125 1.246094 L 130.457031 0.597656 C 128.742188 0.421875 127.015625 0.3125 125.300781 0.167969 C 123.738281 0.0351562 122.296875 0.246094 122.242188 2.203125 C 122.1875 3.859375 123.15625 4.851562 124.78125 5.027344 C 126.597656 5.214844 128.410156 5.433594 130.214844 5.566406 C 135.644531 6.070312 141.121094 6.367188 146.332031 7.816406 C 154.292969 9.972656 162.109375 12.226562 169.640625 15.195312 C 177.148438 18.171875 184.371094 21.8125 190.828125 26.503906 C 193.53125 28.40625 196.125 30.460938 198.777344 32.382812 C 201.347656 34.429688 203.953125 36.375 206.4375 38.507812 C 208.976562 40.550781 211.351562 42.792969 213.75 44.960938 C 216.046875 47.257812 218.378906 49.488281 220.46875 51.949219 C 226.613281 58.875 232.011719 66.335938 236.652344 74.140625 L 240.828125 81.011719 C 242.117188 83.363281 243.414062 85.703125 244.292969 88.222656 C 245.28125 91.058594 246.382812 93.804688 247.347656 96.597656 C 248.425781 99.355469 249.328125 102.171875 250.296875 104.953125 C 252.066406 110.558594 253.679688 116.25 254.308594 122.097656 C 254.957031 127.15625 255.703125 132.1875 256.132812 137.265625 C 256.59375 144.949219 256.417969 152.65625 255.582031 160.273438 C 253.328125 168 250.207031 175.296875 246.632812 182.167969 C 247.183594 179.847656 247.777344 177.539062 248.523438 175.265625 C 249.898438 171.1875 250.449219 166.878906 251.097656 162.613281 C 251.449219 160.480469 251.691406 158.335938 252.199219 156.214844 C 252.636719 154.09375 253.164062 151.960938 254.011719 149.820312 C 254.109375 149.566406 254.054688 149.292969 254.066406 149.027344 C 254.636719 138.210938 254.089844 127.15625 251.605469 116.414062 C 250.21875 110.007812 248.109375 103.773438 245.632812 97.695312 C 244.445312 94.628906 243.015625 91.664062 241.644531 88.660156 C 240.148438 85.726562 238.71875 82.738281 237.078125 79.859375 C 235.550781 76.933594 233.738281 74.175781 231.921875 71.40625 C 229.988281 68.722656 228.03125 66.039062 225.832031 63.558594 C 216.992188 53.234375 206.1875 44.773438 194.695312 37.5625 C 189.441406 34.285156 183.988281 31.320312 178.382812 28.59375 C 172.75 25.910156 166.914062 23.613281 160.933594 21.632812 C 157.984375 20.753906 155.203125 19.316406 152.257812 21.964844 C 151.675781 22.480469 150.664062 22.515625 149.882812 22.449219 C 147.464844 22.25 145 22.304688 142.628906 21.867188 C 136.226562 20.953125 129.753906 20.382812 123.210938 20.152344 C 116.945312 19.984375 110.644531 20.261719 104.332031 20.910156 C 98.054688 21.679688 91.757812 22.789062 85.566406 24.4375 C 83.9375 24.832031 82.386719 25.449219 80.816406 26.019531 C 79.574219 26.503906 78.585938 27.230469 79.15625 29.066406 C 79.761719 30.976562 80.980469 31.625 82.5 31.382812 C 83.542969 31.207031 84.542969 30.789062 85.554688 30.460938 C 85.796875 30.382812 86.039062 30.308594 86.292969 30.21875 C 85.851562 30.660156 85.46875 31.253906 85.117188 32.054688 C 91.042969 30.890625 96.394531 30.164062 101.761719 29.878906 C 102.496094 32.570312 101.308594 32.835938 100.011719 33.21875 C 95.394531 34.738281 90.503906 35.285156 85.886719 36.96875 C 80.265625 38.914062 74.691406 41.058594 69.183594 43.496094 C 66.402344 44.671875 63.71875 46.046875 60.984375 47.398438 C 58.332031 48.859375 55.617188 50.289062 53.054688 51.960938 C 45.449219 56.730469 37.925781 62.039062 31.429688 68.613281 C 24.503906 75.667969 18.421875 83.75 13.75 92.628906 C 7.085938 105.535156 2.855469 119.746094 1.25 134.1875 C 1.074219 135.429688 1.746094 136.738281 2.007812 138.015625 C 2.183594 138.914062 2.382812 139.851562 2.292969 140.738281 C 1.25 151.25 1.492188 161.910156 3.109375 172.441406 C 3.515625 175.527344 4.230469 178.5625 4.855469 181.617188 C 5.648438 184.628906 6.363281 187.675781 7.363281 190.632812 C 8.242188 193.632812 9.375 196.535156 10.453125 199.480469 C 11.660156 202.359375 12.792969 205.28125 14.179688 208.085938 C 15.554688 211.121094 17.554688 213.824219 19.324219 216.625 C 20.257812 217.988281 21.148438 219.386719 21.917969 220.859375 C 22.6875 222.34375 23.4375 223.824219 23.953125 225.496094 C 24.152344 226.078125 24.855469 226.453125 25.351562 226.902344 C 26.394531 227.792969 27.660156 228.464844 28.492188 229.496094 C 35.191406 237.652344 42.972656 244.832031 51.253906 251.292969 C 59.3125 257.625 68.039062 263.144531 77.34375 267.628906 C 83.003906 270.308594 88.851562 272.628906 94.878906 274.429688 C 100.882812 276.289062 107.015625 277.796875 113.238281 278.917969 C 127.664062 281.640625 142.636719 282.335938 157.65625 280.488281 C 163.617188 279.742188 169.550781 278.585938 175.445312 277.089844 C 181.304688 275.519531 187.1875 273.738281 192.894531 271.464844 C 206 266.429688 218.675781 259.515625 230.140625 250.558594 C 243.324219 240.148438 254.859375 227.125 263.929688 212.175781 L 266.511719 207.710938 C 267.335938 206.195312 268.105469 204.65625 268.910156 203.117188 C 269.625 201.734375 269.996094 200.324219 268.207031 199.511719 " fill-opacity="1" fill-rule="nonzero"/></g></svg>